<?xml version="1.0" encoding="UTF-8"?>
<svg version="1.1" xmlns="http://www.w3.org/2000/svg" width="1536" height="1024">
<path d="M0 0 C506.88 0 1013.76 0 1536 0 C1536 337.92 1536 675.84 1536 1024 C1029.12 1024 522.24 1024 0 1024 C0 686.08 0 348.16 0 0 Z " fill="#1C1C1C" transform="translate(0,0)"/>
<path d="M0 0 C36.63 0 73.26 0 111 0 C112.65 8.91 114.3 17.82 116 27 C117.29782368 33.04073404 118.61844504 39.05775602 120.0625 45.0625 C120.24775238 45.83905945 120.43300476 46.6156189 120.62387085 47.41571045 C141.1475174 133.08662223 172.20194187 222.40934119 219.62597656 299.71826172 C221.99024862 303.64443206 224.24789181 307.63186414 226.52392578 311.60961914 C232.79017824 322.55891598 239.18024954 333.38719564 246 344 C246.86595937 345.35932789 247.73184242 346.7187044 248.59765625 348.078125 C255.50355684 358.8758731 262.69917375 369.46626965 270 380 C270.49081055 380.71124023 270.98162109 381.42248047 271.48730469 382.15527344 C279.94613089 394.39394073 288.9030692 406.23018537 298 418 C298.79567383 419.03181396 298.79567383 419.03181396 299.60742188 420.08447266 C305.7501175 428.0361228 312.10617254 435.77385461 318.64257812 443.40429688 C319.97719648 444.97319356 321.29561721 446.55423777 322.609375 448.140625 C328.91422046 455.73107244 335.54985043 462.95509259 342.3359375 470.1171875 C344.53178954 472.4350941 346.7099856 474.7646785 348.8515625 477.1328125 C355.44377534 484.42000543 362.31155254 491.41917519 369.25 498.375 C369.72212921 498.84971741 370.19425842 499.32443481 370.68069458 499.8135376 C375.75810235 504.91291497 380.88382894 509.87952833 386.34667969 514.56494141 C388.33011737 516.2865372 390.17615215 518.11101473 392 520 C395.12508502 523.16747959 398.36241889 526.11885247 401.734375 529.01953125 C404.53316934 531.46606355 407.26666654 533.98101228 410 536.5 C417.59701924 543.48464131 425.35900341 550.17507635 433.375 556.67529297 C435.12173442 558.09923842 436.85805255 559.5352818 438.59375 560.97265625 C448.78243288 569.37812523 459.30452813 577.25351209 470 585 C470.80356934 585.58378418 471.60713867 586.16756836 472.43505859 586.76904297 C504.0809148 609.75809445 536.53193706 631.44378093 571 650 C567.17400855 654.63033862 563.19558216 658.8996157 558.75 662.9375 C558.22148438 663.43056641 557.69296875 663.92363281 557.1484375 664.43164062 C553.24848301 668 553.24848301 668 551 668 C551 668.66 551 669.32 551 670 C549.44759659 671.39325954 547.82970015 672.71380128 546.1875 674 C542.16052706 677.21745342 538.28942988 680.50038222 534.5 684 C530.04923732 688.09672474 525.44619605 691.93093105 520.73828125 695.7265625 C517.9675219 698.0269647 515.326622 700.42521472 512.6875 702.875 C507.40300832 707.7412945 501.84358173 712.16593089 496.1640625 716.5546875 C493.02679575 718.89880124 493.02679575 718.89880124 490.4609375 721.3828125 C488 723 488 723 485.29296875 723.11328125 C480.50888916 721.49588779 476.54332804 718.9122294 472.3125 716.1875 C470.92961792 715.31279053 470.92961792 715.31279053 469.51879883 714.42041016 C467.60800493 713.21082353 465.69973232 711.99724522 463.79394531 710.77978516 C461.19240701 709.12256616 458.5800363 707.48474959 455.9609375 705.85546875 C446.51009721 699.96546737 437.24075186 693.86633506 428.11914062 687.47900391 C425.85182848 685.8965872 423.57489939 684.32867013 421.296875 682.76171875 C409.70860412 674.76040276 398.45107049 666.38532009 387.30615234 657.77880859 C385.26770586 656.20649004 383.22381046 654.64183229 381.17578125 653.08203125 C374.33043981 647.86274104 367.63723219 642.48081839 361 637 C359.22924218 635.56240698 357.45840774 634.12490833 355.6875 632.6875 C346.32897987 625.02688281 337.17474144 617.1311777 328.21875 609.00390625 C326.20691607 607.18688018 324.17339566 605.40055608 322.125 603.625 C317.31021902 599.42898605 312.61811502 595.09949522 307.92651367 590.7668457 C306.44895002 589.41174139 304.9631755 588.06558534 303.47387695 586.72338867 C295.64520268 579.63228871 288.11822333 572.27272803 280.66186523 564.79223633 C278.67610324 562.80107223 276.6849926 560.81536779 274.69335938 558.83007812 C263.50990661 547.65247117 263.50990661 547.65247117 258.47094727 541.71606445 C255.80225399 538.60266279 252.94527254 535.66298058 250.125 532.6875 C245.20506227 527.4605134 240.54625318 522.14137138 236.06640625 516.53125 C233.99887218 513.99861847 231.83886659 511.5926884 229.625 509.1875 C225.10226551 504.21797891 220.98635969 498.98892712 216.87109375 493.68359375 C214.5215844 490.65571057 212.12737162 487.66749018 209.71606445 484.6887207 C198.04796081 470.2536929 187.07636323 455.30211121 176.46044922 440.08105469 C174.96719728 437.95325805 173.45691007 435.83855863 171.94140625 433.7265625 C165.71336168 425.03026063 159.87167621 416.18652203 154.28173828 407.06884766 C152.977367 404.96346818 151.64765801 402.87643601 150.30859375 400.79296875 C141.81256052 387.5560551 133.86447712 374.01205994 125.97753906 360.40722656 C124.25022729 357.43113236 122.51351933 354.46082235 120.7734375 351.4921875 C102.35452545 319.88985515 86.27340836 286.65953973 72 253 C71.68871155 252.26678528 71.3774231 251.53357056 71.05670166 250.77813721 C58.87331698 222.05103744 47.65970388 193.15596432 37.75 163.5625 C37.51082855 162.84911469 37.2716571 162.13572937 37.02523804 161.40072632 C30.20537844 140.99493796 24.11491584 120.44707178 18.9375 99.5625 C18.67820709 98.52141083 18.41891418 97.48032166 18.15176392 96.40768433 C13.93883462 79.43646632 10.28457144 62.48835643 7.38018799 45.24041748 C6.79384098 41.78512137 6.19103286 38.33271354 5.59010315 34.87992859 C4.15031182 26.60247888 2.72293434 18.32289525 1.3203125 10.0390625 C1.18628525 9.25427017 1.052258 8.46947784 0.91416931 7.66090393 C0 2.23281686 0 2.23281686 0 0 Z " fill="#1B1B1B" transform="translate(714,0)"/>
<path d="M0 0 C68.64 0 137.28 0 208 0 C208.44364484 94.54564473 208.44364484 94.54564473 208.53710938 134.0390625 C208.55864522 143.07845274 208.58087031 152.11784089 208.60424805 161.15722656 C208.60714928 162.29013044 208.61005052 163.42303432 208.61303967 164.59026861 C208.66085238 182.86841844 208.74755743 201.14618673 208.84868076 219.42411049 C208.95163137 238.18914022 209.01266419 256.95397052 209.03497344 275.71927106 C209.05004978 287.2940979 209.09762455 298.86784666 209.18708114 310.44234155 C209.24533095 318.38479072 209.26277799 326.32668445 209.24851515 334.26933159 C209.24148485 338.84890743 209.25208105 343.42660281 209.31126022 348.00584221 C209.36515158 352.20679384 209.36727665 356.40461767 209.32988784 360.60571925 C209.3252739 362.11746199 209.33893693 363.62940712 209.37371501 365.1407568 C209.62568656 376.77642148 206.02651629 383.26475449 198.31299303 391.57225256 C196.5273545 393.5139543 194.88957994 395.56353563 193.25 397.62890625 C192.16853281 398.94164377 191.08522921 400.2528708 190 401.5625 C189.41387939 402.27229004 188.82775879 402.98208008 188.22387695 403.71337891 C184.1285183 408.66339693 179.99224392 413.57749671 175.82983398 418.47119141 C173.03415319 421.76198908 170.28481021 425.08583851 167.5625 428.4375 C163.59274865 433.31787532 159.50825551 438.09017825 155.39331055 442.84790039 C151.6230674 447.22352193 148.02498164 451.70983421 144.5234375 456.3046875 C144.02070312 456.86414063 143.51796875 457.42359375 143 458 C142.34 458 141.68 458 141 458 C139.73828125 456.49389648 139.73828125 456.49389648 138.3125 454.37109375 C137.78390381 453.5912915 137.25530762 452.81148926 136.71069336 452.00805664 C135.86390015 450.7356311 135.86390015 450.7356311 135 449.4375 C134.41549072 448.56923584 133.83098145 447.70097168 133.22875977 446.80639648 C132.03778892 445.03531335 130.84971316 443.26227994 129.66455078 441.48730469 C128.23453756 439.35046475 126.79195519 437.223405 125.33984375 435.1015625 C119.03582272 425.84739631 113.27152945 416.29505508 107.57519531 406.65771484 C105.99474556 403.99113455 104.40113815 401.3328076 102.8046875 398.67578125 C94.80792509 385.32408716 87.2508671 371.77055433 80 358 C79.26015869 356.6063623 79.26015869 356.6063623 78.50537109 355.18457031 C68.73471245 336.67414722 60.78648954 317.40726186 53 298 C52.70916534 297.27886017 52.41833069 296.55772034 52.11868286 295.81472778 C47.27280165 283.7600921 43.05372377 271.54914564 39.0625 259.1875 C38.60786377 257.78643005 38.60786377 257.78643005 38.14404297 256.35705566 C33.28752672 241.36833573 28.79120734 226.33679614 24.81298828 211.08886719 C24.04447877 208.1689926 23.24496143 205.25977489 22.43359375 202.3515625 C12.52539229 166.4215309 7.381168 129.34687429 2.6875 92.4375 C2.52805908 91.19137939 2.36861816 89.94525879 2.2043457 88.66137695 C-1.43477685 59.04056529 0 30.18318352 0 0 Z " fill="#1B1B1B" transform="translate(1328,0)"/>
<path d="M0 0 C3.16423315 3.08772319 6.08282836 6.21076033 8.8125 9.6875 C9.50085937 10.55890625 10.18921875 11.4303125 10.8984375 12.328125 C11.59195312 13.20984375 12.28546875 14.0915625 13 15 C15.65772364 18.34053801 18.32583861 21.67260835 21 25 C22.01320313 26.26070313 22.01320313 26.26070313 23.046875 27.546875 C25.34474984 30.38147973 27.66828346 33.1931688 30 36 C30.42249023 36.515625 30.84498047 37.03125 31.28027344 37.5625 C32.17331175 38.64797535 33.07247024 39.72844364 33.97759247 40.80386353 C35.00883472 42.02947794 36.03149397 43.26238322 37.04401398 44.50350952 C40.65836583 48.76515689 44.41894619 52.17260252 48.8939209 55.52587891 C58.94841986 63.34384961 67.39162167 71.31883367 69.11621094 84.44946289 C70.14980829 94.79696216 69.7864586 105.22333907 69.43345451 115.59805298 C69.28153463 120.83021369 69.26918214 126.06284916 69.24084473 131.296875 C69.16678121 141.16962761 68.97062375 151.03586254 68.72845697 160.90576744 C68.45847914 172.15790264 68.32782215 183.41038003 68.20776653 194.66495705 C67.95812418 217.78022671 67.53708531 240.88974547 67 264 C63.99293469 263.37680505 60.98644615 262.75102095 57.98022461 262.1237793 C57.13839378 261.94959221 56.29656296 261.77540512 55.42922211 261.59593964 C47.71133909 259.98196386 40.13713134 258.00563837 32.5625 255.8125 C31.85542908 255.60946259 31.14835815 255.40642517 30.41986084 255.19723511 C-2.80398601 245.62045921 -35.92761402 234.94393172 -68 222 C-69.33265147 221.46793937 -70.66550554 220.93638596 -71.99853516 220.40527344 C-91.70544024 212.54050112 -111.03557481 204.04502919 -130.16827393 194.87548828 C-132.67435219 193.67768792 -135.18530731 192.49029433 -137.69624329 191.30271912 C-140.75840111 189.85303109 -143.81661722 188.39513622 -146.875 186.9375 C-148.53293579 186.15137329 -148.53293579 186.15137329 -150.22436523 185.34936523 C-156.05634507 182.54822088 -161.68065151 179.69790853 -167 176 C-167 175.34 -167 174.68 -167 174 C-165.56640625 172.58984375 -165.56640625 172.58984375 -163.5625 170.9375 C-159.64769691 167.61647657 -156.04212822 164.08957832 -152.46875 160.40625 C-150.58975806 158.57482747 -148.71146442 156.89850893 -146.71313477 155.20874023 C-140.21665234 149.53877109 -134.20972839 143.35341517 -128.12109375 137.25390625 C-126.78180764 135.91529513 -125.44237324 134.57683237 -124.10279846 133.23851013 C-121.30657004 130.4437495 -118.51214141 127.64720514 -115.71899414 124.84936523 C-112.15631983 121.28099423 -108.58917403 117.71713236 -105.02065945 114.154603 C-102.25718 111.39475402 -99.49610758 108.63250678 -96.73573494 105.8695507 C-95.42208093 104.55523429 -94.10769667 103.24164731 -92.7925396 101.92883492 C-83.7675614 92.94898742 -83.7675614 92.94898742 -75.26161194 83.48179626 C-73.6114218 81.54360473 -71.83042539 79.76730727 -70 78 C-66.84900292 74.89109639 -63.91828419 71.66930278 -61.03125 68.31640625 C-58.48658294 65.41450709 -55.87248699 62.58150472 -53.25 59.75 C-52.48055054 58.91879639 -52.48055054 58.91879639 -51.69555664 58.07080078 C-50.64889764 56.94046778 -49.60210343 55.81025996 -48.55517578 54.68017578 C-42.5390909 48.18053745 -36.53273143 41.67618987 -30.734375 34.98046875 C-28.72735462 32.68866845 -26.67597149 30.44003248 -24.625 28.1875 C-21.51471149 24.74621795 -18.53521688 21.23678702 -15.625 17.625 C-10.67758169 11.50421169 -5.36832076 5.74962205 0 0 Z " fill="#1B1B1B" transform="translate(1469,473)"/>
<path d="M0 0 C4.06671669 1.26540138 7.70481088 3.16949477 11.48022461 5.12402344 C13.22191342 6.01091958 14.96378286 6.89746107 16.70581055 7.78369141 C17.61729858 8.24982849 18.52878662 8.71596558 19.46789551 9.19622803 C37.65956806 18.47890322 55.92731057 27.20654005 74.85913086 34.88964844 C75.58189209 35.18315186 76.30465332 35.47665527 77.04931641 35.77905273 C110.24205366 49.23079043 143.73183267 61.46521486 177.88122559 72.26269531 C179.66248499 72.82731596 181.44206816 73.39721823 183.22143555 73.96777344 C196.69336283 78.28586901 210.30148273 81.8665096 224.03808594 85.2265625 C224.70302567 85.38922104 225.36796539 85.55187958 226.05305481 85.71946716 C227.86551016 86.16149975 229.67870203 86.60050931 231.49194336 87.03930664 C234.96681203 87.91684199 238.41306598 88.90505847 241.85913086 89.88964844 C241.85913086 121.23964844 241.85913086 152.58964844 241.85913086 184.88964844 C229.30699122 182.90773165 216.79015858 180.88005402 204.29663086 178.57714844 C203.47929474 178.42691223 202.66195862 178.27667603 201.81985474 178.12188721 C188.35761257 175.63743978 175.01756927 172.81918599 161.71411133 169.58056641 C158.89233494 168.89768397 156.06642336 168.23597112 153.23803711 167.58105469 C116.41136299 159.02840276 80.10268909 147.3024608 44.87475586 133.58544922 C40.5608769 131.9058229 36.24057337 130.32401494 31.84692383 128.86669922 C19.33199617 124.68276 7.41854101 119.01217385 -4.5637207 113.52392578 C-7.79987606 112.04543657 -11.04259113 110.58304177 -14.28930664 109.12792969 C-38.53332593 98.21852724 -62.18349347 86.30144465 -85.14086914 72.88964844 C-81.65936155 69.31870763 -78.03680094 66.01941593 -74.20336914 62.82714844 C-73.04676745 61.85621306 -71.89052986 60.88484382 -70.73461914 59.91308594 C-70.14165039 59.41518555 -69.54868164 58.91728516 -68.93774414 58.40429688 C-66.01140935 55.93758749 -63.10693508 53.44558314 -60.20336914 50.95214844 C-59.03279892 49.94693697 -57.86222598 48.94172865 -56.69165039 47.93652344 C-56.10851074 47.43572266 -55.52537109 46.93492187 -54.92456055 46.41894531 C-53.11766626 44.86975481 -51.30746981 43.3245068 -49.49633789 41.78027344 C-43.51620142 36.67736341 -37.59515903 31.52991197 -31.77758789 26.24121094 C-28.54821079 23.36108499 -25.25178108 20.56509708 -21.95336914 17.76464844 C-17.65628098 14.11223791 -13.53154362 10.3968834 -9.58618164 6.36230469 C-3.18108476 -0.1639697 -3.18108476 -0.1639697 0 0 Z " fill="#1B1B1B" transform="translate(1294.140869140625,656.1103515625)"/>
<path d="M0 0 C6.75686908 5.73588207 10.39311184 11.93978822 11.2734375 20.73046875 C11.58704977 29.47542637 9.38810608 36.07243504 4 43 C-2.09543148 48.95689895 -7.6399654 51.13315444 -16.0625 51.375 C-21.16105148 51.24641106 -24.53777737 50.41703726 -29 48 C-30.33142587 47.32953197 -31.66437181 46.66205708 -33 46 C-38.42066888 50.05124627 -43.81477145 54.13542231 -49.1875 58.25 C-49.92943604 58.8179126 -50.67137207 59.3858252 -51.43579102 59.97094727 C-53.62432432 61.64669404 -55.8122789 63.32319307 -58 65 C-58.86915039 65.66588135 -58.86915039 65.66588135 -59.75585938 66.34521484 C-65.09201669 70.4350772 -70.41665381 74.53649512 -75.69921875 78.6953125 C-76.51398682 79.33476807 -77.32875488 79.97422363 -78.16821289 80.63305664 C-79.78085355 81.89954766 -81.39081315 83.16946149 -82.99780273 84.44311523 C-84.10103882 85.30851929 -84.10103882 85.30851929 -85.2265625 86.19140625 C-85.88221191 86.70904541 -86.53786133 87.22668457 -87.21337891 87.76000977 C-89 89 -89 89 -92 90 C-91.67386719 90.81339844 -91.34773438 91.62679687 -91.01171875 92.46484375 C-89.81823663 96.6351191 -89.74106799 100.2577815 -89.8125 104.5625 C-89.81314453 105.30435547 -89.81378906 106.04621094 -89.81445312 106.81054688 C-89.84542696 110.67539291 -90.18036046 114.23211092 -91 118 C-62.83710118 143.20424118 -62.83710118 143.20424118 -32.06640625 158.8125 C-29.65351603 157.86376434 -27.95858008 156.61997941 -25.9375 155 C-20.54245231 150.69224599 -15.74568867 150.32347018 -9 151 C-0.95873474 153.07644514 4.71962374 158.28734678 9.38671875 164.9921875 C13.05663952 171.81695245 12.93161465 179.46677119 12 187 C10.80840197 190.72130204 9.19421008 193.77819843 7 197 C6.60425781 197.59425781 6.20851563 198.18851563 5.80078125 198.80078125 C2.35820315 203.40994728 -1.96711797 205.48355899 -7 208 C-15.37849626 208.81817207 -22.45011136 209.12725116 -29.2734375 203.6328125 C-31.52375231 201.50468673 -33.34365396 199.63788444 -35 197 C-35.36996094 196.41089844 -35.73992187 195.82179688 -36.12109375 195.21484375 C-39.89335185 188.23159779 -39.75280928 180.73817914 -39 173 C-37.9765625 170.046875 -37.9765625 170.046875 -37 168 C-37.57637207 167.72994141 -38.15274414 167.45988281 -38.74658203 167.18164062 C-41.03249067 165.98296264 -42.98802884 164.63755421 -45.0546875 163.09375 C-46.21291016 162.23330078 -46.21291016 162.23330078 -47.39453125 161.35546875 C-48.62236328 160.43701172 -48.62236328 160.43701172 -49.875 159.5 C-51.60095732 158.21793488 -53.32752342 156.93668894 -55.0546875 155.65625 C-55.9012793 155.02847656 -56.74787109 154.40070313 -57.62011719 153.75390625 C-60.7223823 151.4676247 -63.8548138 149.2266805 -67 147 C-73.6285164 142.30160724 -80.16386123 137.47931163 -86.69335938 132.64453125 C-87.46873047 132.07089844 -88.24410156 131.49726563 -89.04296875 130.90625 C-89.73414795 130.39384766 -90.42532715 129.88144531 -91.13745117 129.35351562 C-94.12714849 126.84481657 -94.12714849 126.84481657 -97.75 126.125 C-101.05206394 127.40913598 -103.95106819 129.1932256 -107 131 C-111.64273901 133.32136951 -118.44497435 132.75147813 -123.32421875 131.31640625 C-125.35916356 130.35290586 -127.14968521 129.28160332 -129 128 C-129.92425781 127.38125 -129.92425781 127.38125 -130.8671875 126.75 C-136.83640145 122.24106585 -139.67558565 115.97324306 -142 109 C-142.90799584 100.75361152 -141.28896199 94.48350025 -136.38671875 87.80078125 C-131.71962748 82.20234139 -126.78308708 77.46958779 -119.21484375 76.7265625 C-112.057952 76.50477563 -107.31660775 77.15097901 -101.21875 81.00390625 C-98.19700061 82.36050149 -97.10772392 82.18066367 -94 81 C-91.37112221 79.21499275 -88.9781615 77.18581197 -86.5625 75.125 C-85.12973176 73.93130013 -83.69612304 72.73860842 -82.26171875 71.546875 C-81.5454834 70.94810547 -80.82924805 70.34933594 -80.09130859 69.73242188 C-77.06273071 67.22357426 -73.97575685 64.79366986 -70.875 62.375 C-70.02578979 61.710448 -70.02578979 61.710448 -69.15942383 61.0324707 C-68.01844939 60.13980974 -66.87709294 59.24763684 -65.73535156 58.35595703 C-63.94448873 56.95662499 -62.15547318 55.5549676 -60.3671875 54.15234375 C-59.76672607 53.68183594 -59.16626465 53.21132813 -58.54760742 52.7265625 C-57.36241417 51.79424696 -56.18020306 50.85812612 -55.0012207 49.91796875 C-52.33558421 47.79673622 -49.67537529 45.77725004 -46.86328125 43.84765625 C-42.03759912 40.76900266 -42.03759912 40.76900266 -39.61328125 35.9296875 C-39.89807883 33.55779122 -40.44828289 31.32378863 -41 29 C-41.79448653 19.56704877 -40.30232884 13.25926446 -35.3125 5.3125 C-25.35513036 -4.64486964 -12.48062838 -7.57388868 0 0 Z " fill="#3D3D3D" transform="translate(540,306)"/>
<path d="M0 0 C0.33 0 0.66 0 1 0 C1 47.19 1 94.38 1 143 C-6.79104478 136.32196162 -6.79104478 136.32196162 -9.3125 133.25 C-12.06815651 130.00513705 -14.96899561 126.98973504 -18 124 C-29.79188238 112.29651255 -40.1561824 99.06866839 -49.984375 85.69140625 C-52.495915 82.33781892 -55.16538365 79.12594985 -57.8828125 75.9375 C-59 74 -59 74 -58.91796875 72.0546875 C-57.70878187 69.34816708 -56.10049268 67.39301654 -54.1875 65.125 C-53.37796875 64.15949219 -52.5684375 63.19398438 -51.734375 62.19921875 C-48.29275 58.16173407 -44.83353734 54.13919724 -41.37158203 50.11914062 C-37.88775608 46.06483125 -34.50346071 41.94721489 -31.1875 37.75390625 C-26.690776 32.09285193 -22.10778949 26.50080065 -17.54248047 20.89501953 C-16.16345938 19.20081856 -14.7864766 17.5049886 -13.41015625 15.80859375 C-3.5367594 3.67359831 -3.5367594 3.67359831 0 0 Z " fill="#1B1B1B" transform="translate(1535,393)"/>
<path d="M0 0 C0.93629871 -0.00521549 1.87259743 -0.01043099 2.83726883 -0.01580453 C4.39064516 -0.00911236 4.39064516 -0.00911236 5.97540283 -0.002285 C7.07009258 -0.00540498 8.16478233 -0.00852497 9.2926445 -0.01173949 C12.98545358 -0.01975962 16.67810015 -0.01338022 20.37091064 -0.00710678 C23.00832608 -0.00981486 25.64573006 -0.01330201 28.28314209 -0.0177269 C34.71785796 -0.0266383 41.15252727 -0.02469114 47.58724499 -0.01890162 C52.8150642 -0.01439198 58.04287032 -0.01376919 63.27069092 -0.01594925 C64.3851135 -0.01640895 64.3851135 -0.01640895 65.52204967 -0.01687793 C67.03115114 -0.01751736 68.54025261 -0.01816579 70.04935408 -0.01882312 C84.21315576 -0.02453153 98.3769316 -0.01796052 112.54072905 -0.00722238 C124.70418795 0.00171359 136.86760868 0.00016169 149.03106689 -0.00905991 C163.14284011 -0.01975353 177.25459064 -0.02398216 191.36636734 -0.01783538 C192.87003835 -0.01719825 194.37370936 -0.01656951 195.87738037 -0.01594925 C196.9872456 -0.01548642 196.9872456 -0.01548642 198.11953235 -0.01501425 C203.34342666 -0.01328458 208.56730664 -0.01620825 213.79119873 -0.02090836 C220.15400528 -0.02650713 226.51676246 -0.02502199 232.87956333 -0.01434687 C236.12838504 -0.00907654 239.37710691 -0.00812599 242.62593079 -0.01364517 C246.14159358 -0.01906908 249.65702087 -0.01230497 253.17266846 -0.002285 C254.20825268 -0.00674645 255.2438369 -0.01120789 256.31080246 -0.01580453 C257.71525053 -0.00798129 257.71525053 -0.00798129 259.14807129 0 C259.96034809 0.0003247 260.77262489 0.00064941 261.60951614 0.00098395 C263.57403564 0.25168228 263.57403564 0.25168228 265.57403564 2.25168228 C265.88653564 4.75168228 265.88653564 4.75168228 265.57403564 7.25168228 C262.40182907 9.36648667 261.65068648 9.50191454 258.02502346 9.50336456 C257.0867337 9.50858006 256.14844394 9.51379555 255.18172115 9.51916909 C254.14904977 9.51470765 253.11637839 9.51024621 252.05241394 9.50564957 C250.95686976 9.50876955 249.86132559 9.51188953 248.73258311 9.51510406 C245.04287991 9.52311384 241.35333982 9.51674877 237.66363525 9.51047134 C235.02607233 9.51317987 232.38852083 9.51666735 229.7509613 9.52109146 C223.31972464 9.52999722 216.88853458 9.52805829 210.45729607 9.52226618 C205.23236119 9.51775473 200.0074394 9.51713454 194.78250313 9.51931381 C194.03969023 9.51962028 193.29687733 9.51992674 192.53155496 9.5202425 C191.02269502 9.52088193 189.51383508 9.52153035 188.00497515 9.52218768 C173.84784554 9.52789434 159.6907418 9.52132762 145.53361643 9.51058695 C133.37642225 9.50164929 121.21926625 9.50320459 109.06207275 9.51242447 C94.95505331 9.52311801 80.84805655 9.52734693 66.74103361 9.52119994 C65.23793988 9.52056282 63.73484614 9.51993408 62.2317524 9.51931381 C61.49213723 9.51900526 60.75252207 9.51869671 59.99049432 9.51837881 C54.76909312 9.51664925 49.54770627 9.51957253 44.3263073 9.52427292 C37.96718476 9.52987151 31.60811161 9.52838685 25.24899476 9.51771143 C22.00219135 9.51244115 18.75548783 9.51149052 15.50868225 9.51700974 C11.99526244 9.52243362 8.48207829 9.5156696 4.96867371 9.50564957 C3.9337716 9.51011101 2.8988695 9.51457245 1.83260673 9.51916909 C0.89692472 9.5139536 -0.0387573 9.5087381 -1.00279331 9.50336456 C-1.81452804 9.50303986 -2.62626277 9.50271515 -3.46259552 9.50238061 C-5.42596436 9.25168228 -5.42596436 9.25168228 -7.42596436 7.25168228 C-6.8866066 1.85810468 -5.41340173 0.00216399 0 0 Z " fill="#3C3C3D" transform="translate(1025.4259643554688,294.74831771850586)"/>
<path d="M0 0 C1.22516765 0.00056958 1.22516765 0.00056958 2.47508615 0.00115067 C3.88362284 -0.00183591 3.88362284 -0.00183591 5.32061481 -0.00488281 C6.88624319 -0.00051355 6.88624319 -0.00051355 8.48350042 0.00394398 C9.58283043 0.00308955 10.68216044 0.00223513 11.81480348 0.00135481 C15.5291686 -0.00030322 19.24348938 0.00522665 22.9578504 0.01067311 C25.60821155 0.01095493 28.25856991 0.01084145 30.90893072 0.0102306 C36.6307582 0.00970518 42.35257431 0.0128539 48.07439893 0.01846844 C56.34728877 0.02658094 64.62017308 0.0291984 72.89306646 0.03045643 C86.31391553 0.03264734 99.73475853 0.0393085 113.1556043 0.04875904 C126.19596858 0.05793214 139.23633121 0.06501348 152.27669805 0.06926686 C153.07993714 0.06952958 153.88317623 0.0697923 154.71075589 0.07006299 C158.74020041 0.07136799 162.76964495 0.0726317 166.79908949 0.07387489 C200.24971927 0.08424873 233.70034171 0.10186811 267.15096563 0.1241985 C267.81096563 1.7741985 268.47096563 3.4241985 269.15096563 5.1241985 C267.34352827 7.5045562 266.44048268 8.08323122 263.43184847 8.50895935 C262.3230083 8.51356832 261.21416813 8.51817728 260.07172674 8.52292591 C258.79584566 8.53546532 257.51996458 8.54800472 256.20542043 8.56092411 C254.78484345 8.55974946 253.36426667 8.5582886 251.94369024 8.55657154 C250.44532111 8.56558381 248.94695934 8.57590087 247.44860739 8.587421 C243.34643784 8.6151556 239.24440653 8.62426912 235.14215535 8.63025886 C230.779991 8.63979315 226.41792828 8.66635138 222.05582708 8.69086415 C213.63959141 8.73539958 205.22337646 8.76401701 196.80705619 8.78664029 C190.04874161 8.80508525 183.29047099 8.82928844 176.53219122 8.857719 C175.57854748 8.86172754 174.62490374 8.86573607 173.6423617 8.86986607 C171.71583402 8.87799325 169.7893064 8.88613607 167.86277884 8.89429456 C150.72663436 8.96625747 133.59047665 9.02171923 116.45424765 9.06879407 C103.18527427 9.1055395 89.91648707 9.15863766 76.64764398 9.22747856 C66.12665273 9.28185858 55.6056743 9.3222528 45.0845899 9.35335499 C40.97343578 9.36587504 36.86238034 9.38459012 32.75127691 9.40846974 C28.04215349 9.43525979 23.33322201 9.44792103 18.62402433 9.44846112 C16.95252102 9.4509917 15.28101598 9.45857303 13.60956281 9.4717651 C11.38451096 9.48859553 9.16023275 9.48713488 6.93514532 9.48064381 C5.7097907 9.48428944 4.48443609 9.48793507 3.22194952 9.49169117 C-0.08277055 9.0962282 -1.45213702 8.37164366 -3.84903437 6.1241985 C-2.78337575 0.18695763 -2.78337575 0.18695763 0 0 Z " fill="#3D3D3E" transform="translate(1021.8490343689919,196.8758015036583)"/>
<path d="M0 0 C0.7696355 0.00377932 1.53927099 0.00755865 2.33222878 0.0114525 C3.55562437 0.00571418 3.55562437 0.00571418 4.80373502 -0.00014007 C7.55215852 -0.0105055 10.30037449 -0.00647124 13.04881203 -0.0025093 C15.01303724 -0.00685385 16.97726074 -0.01203613 18.94148171 -0.01799697 C24.28858775 -0.03142675 29.63562328 -0.03196116 34.98274291 -0.02943367 C39.44115093 -0.02836651 43.89954454 -0.03324082 48.3579495 -0.03803909 C58.87405519 -0.04914832 69.39012518 -0.04956392 79.90623391 -0.04352492 C90.7659824 -0.03748458 101.62560134 -0.04979447 112.48532772 -0.07109499 C121.79831306 -0.08869211 131.11125711 -0.09471528 140.42425847 -0.09145725 C145.99117095 -0.08964102 151.55799106 -0.09231423 157.12488854 -0.10617179 C162.35990427 -0.11871458 167.59471766 -0.11683973 172.82973015 -0.1037609 C174.75344579 -0.1013877 176.67717551 -0.10415626 178.60087502 -0.11238402 C181.22266378 -0.12279065 183.84376601 -0.11480007 186.46552956 -0.10207289 C187.61329064 -0.11313432 187.61329064 -0.11313432 188.78423882 -0.12441921 C192.973668 -0.08149786 195.48990692 0.27599941 198.52586281 3.27214891 C197.65086281 8.14714891 197.65086281 8.14714891 196.52586281 9.27214891 C193.91282387 9.37438387 191.32606543 9.41101392 188.71240151 9.40586168 C187.46979488 9.40926001 187.46979488 9.40926001 186.20208508 9.412727 C183.40447955 9.41909674 180.60692209 9.41823574 177.80931008 9.41741258 C175.8124324 9.42040221 173.8155553 9.42380428 171.81867898 9.42759019 C166.37869167 9.43645417 160.93872008 9.4387693 155.49872625 9.43940598 C150.96562416 9.44035304 146.43252576 9.44402897 141.89942509 9.44757807 C131.20939137 9.45573169 120.51936608 9.45816148 109.82932961 9.45745164 C98.78270811 9.45685056 87.7361354 9.46740644 76.68952626 9.4831953 C67.22203494 9.49624755 57.75455962 9.50163652 48.28705937 9.50099623 C42.62519883 9.50074057 36.96338162 9.50362927 31.30153 9.51417428 C25.97875188 9.52381645 20.65605885 9.52396129 15.33327782 9.51665765 C13.37485867 9.51560696 11.41643434 9.51800313 9.45802414 9.52401811 C6.7940168 9.53167301 4.13030813 9.5271368 1.46630776 9.51938707 C0.29127571 9.52710241 0.29127571 9.52710241 -0.90749437 9.53497362 C-6.24586598 9.50042012 -6.24586598 9.50042012 -8.47413719 7.27214891 C-7.86700191 1.20079609 -5.95850255 0.04977287 0 0 Z " fill="#3D3E3E" transform="translate(1026.474137187004,99.7278510928154)"/>
<path d="M0 0 C0.82109174 -0.00226556 1.64218349 -0.00453111 2.4881568 -0.00686532 C5.25501737 -0.01322401 8.02182919 -0.01237477 10.78869629 -0.0115509 C12.76601729 -0.01454119 14.74333771 -0.01794342 16.72065735 -0.02172852 C22.10273608 -0.03058506 27.48479892 -0.0329073 32.86688423 -0.0335443 C37.35281528 -0.0344919 41.8387426 -0.0381684 46.32467222 -0.0417164 C56.90301419 -0.04986693 67.48134764 -0.05230005 78.05969238 -0.05158997 C88.98988732 -0.05098872 99.92003298 -0.06154848 110.85021544 -0.07733363 C120.2200632 -0.09038563 129.58989481 -0.09577486 138.95975161 -0.09513456 C144.56235261 -0.09487892 150.16490984 -0.09776635 155.76750183 -0.10831261 C161.03365997 -0.11795455 166.2997321 -0.11809978 171.56589317 -0.11079597 C173.50334994 -0.10974531 175.44081195 -0.11214132 177.37825966 -0.11815643 C180.01375069 -0.12581155 182.64893984 -0.12127502 185.28442383 -0.11352539 C186.05931451 -0.11866895 186.8342052 -0.12381252 187.63257742 -0.12911195 C192.91394051 -0.09455863 192.91394051 -0.09455863 195.14221191 2.13371277 C195.45471191 4.63371277 195.45471191 4.63371277 195.14221191 7.13371277 C191.40971926 9.62204121 188.52876479 9.41568388 184.2088623 9.39440918 C183.39170526 9.39823473 182.57454821 9.40206027 181.73262882 9.40600175 C178.98497715 9.41634918 176.23753377 9.41233633 173.48986816 9.40837097 C171.52387294 9.41271645 169.55787942 9.41789904 167.59188843 9.42385864 C162.24490873 9.43727663 156.89799958 9.43782427 151.55100632 9.43529534 C147.09245385 9.43422767 142.63391579 9.43910369 138.1753664 9.44390076 C127.66072328 9.45500533 117.14611588 9.45542782 106.63146973 9.4493866 C95.77111248 9.44334289 84.91088466 9.45566576 74.05054951 9.47695667 C64.73671039 9.49454683 55.42291256 9.50057817 46.10905743 9.49731892 C40.5416328 9.49550202 34.97430052 9.49818284 29.40689087 9.51203346 C24.17350649 9.52456544 18.94032461 9.52271179 13.70694351 9.50962257 C11.78280699 9.50724722 9.85865641 9.51002554 7.93453598 9.5182457 C5.31463947 9.52863402 2.69543248 9.52067683 0.07556152 9.50793457 C-1.07554564 9.518996 -1.07554564 9.518996 -2.24990749 9.53028089 C-7.34955601 9.47783979 -7.34955601 9.47783979 -9.86534119 7.77438641 C-10.85778809 6.13371277 -10.85778809 6.13371277 -10.67028809 3.50871277 C-9.0228384 -1.3069094 -4.34250822 -0.00867841 0 0 Z " fill="#3D3E3E" transform="translate(1028.8577880859375,245.8662872314453)"/>
<path d="M0 0 C1.23391983 -0.00426498 2.46783966 -0.00852997 3.739151 -0.01292419 C5.11920169 -0.01257463 6.49925236 -0.01211307 7.87930298 -0.0115509 C9.32284126 -0.01454083 10.76637874 -0.01794296 12.20991516 -0.02172852 C16.14175442 -0.03059049 20.07357193 -0.03290757 24.00542021 -0.0335443 C27.28333792 -0.03449173 30.56125053 -0.03816818 33.83916628 -0.0417164 C41.57113504 -0.04986958 49.30309214 -0.05229987 57.0350647 -0.05158997 C65.01995346 -0.05098918 73.00477466 -0.06153908 80.98964632 -0.07733363 C87.83636907 -0.09039594 94.6830697 -0.0957744 101.52980483 -0.09513456 C105.62283361 -0.09487915 109.71580241 -0.09775367 113.80881882 -0.10831261 C117.65831789 -0.11797143 121.50769939 -0.11808809 125.35720253 -0.11079597 C126.77177031 -0.10974731 128.18634532 -0.11212966 129.60090065 -0.11815643 C131.52875957 -0.12583935 133.45665829 -0.120049 135.38452148 -0.11352539 C136.46448584 -0.11407016 137.54445019 -0.11461493 138.65714073 -0.1151762 C141.31924438 0.13371277 141.31924438 0.13371277 144.31924438 2.13371277 C144.69424438 4.63371277 144.69424438 4.63371277 144.31924438 7.13371277 C140.84991818 9.44659691 139.52855348 9.38655717 135.4359436 9.39440918 C134.2076886 9.40149399 132.97943359 9.4085788 131.71395874 9.4158783 C130.35061609 9.41358442 128.98727379 9.41107472 127.62393188 9.40837097 C126.18994887 9.41271754 124.75596819 9.4179005 123.32199097 9.42385864 C119.42537113 9.43726479 115.52884819 9.43782561 111.63220978 9.43529534 C108.3815247 9.43422689 105.13085932 9.43910569 101.88017845 9.44390076 C94.21336777 9.45500118 86.54660609 9.45543012 78.87979126 9.4493866 C70.96412024 9.443343 63.04862679 9.45566633 55.13298607 9.47695667 C48.34141593 9.49455357 41.54990242 9.50057712 34.75831032 9.49731892 C30.69993895 9.49550312 26.64169429 9.49817181 22.58334351 9.51203346 C18.76823433 9.52457651 14.95340277 9.52270146 11.13829803 9.50962257 C9.73662982 9.50724964 8.33494227 9.51001704 6.9332962 9.5182457 C5.02307112 9.52865318 3.11276745 9.51884346 1.20254517 9.50793457 C0.1325528 9.50810231 -0.93743958 9.50827005 -2.03985596 9.50844288 C-4.68075562 9.13371277 -4.68075562 9.13371277 -6.56408691 7.77438641 C-7.68075562 6.13371277 -7.68075562 6.13371277 -7.43075562 3.50871277 C-6.06555547 -0.81442103 -4.28466542 0.00665341 0 0 Z " fill="#3D3D3E" transform="translate(1025.6807556152344,148.8662872314453)"/>
<path d="M0 0 C4.4577887 2.47469765 7.22181518 5.13482959 9.21484375 9.859375 C10.81342496 15.58429397 10.65509399 20.96573239 8.21484375 26.41015625 C5.73158269 30.79133826 2.36806646 33.83354489 -2.16015625 36.09765625 C-7.81627732 36.84990131 -12.76358042 36.95570324 -17.59765625 33.66015625 C-22.16893253 29.67084943 -24.4630772 24.95337473 -25.53515625 19.0234375 C-25.87082791 13.68416008 -24.29870932 9.31427186 -21.16015625 5.09765625 C-14.66616061 -0.92594936 -8.59329316 -3.58960347 0 0 Z " fill="#1B1B1B" transform="translate(432.16015625,392.90234375)"/>
<path d="M0 0 C4.90624023 1.91873546 9.0066722 4.93968249 11.37109375 9.78515625 C12.99883175 15.51762484 13.20125805 21.87869834 11.046875 27.4765625 C8.31346867 32.09567319 4.84091261 35.5795437 0 38 C-4.33721217 38.49608636 -8.9357154 38.99498518 -12.953125 37.05859375 C-17.58401214 33.32815689 -20.33247898 28.87418501 -21 23 C-21.73183428 15.3742868 -20.34440109 10.16054141 -15.52734375 4.16796875 C-10.90770104 -0.49535853 -6.36546867 -1.3149325 0 0 Z " fill="#1B1B1B" transform="translate(531,467)"/>
<path d="M0 0 C3.49268819 2.91563536 5.37710233 6.24068199 6.796875 10.5 C7.33072642 16.46476294 7.34957649 21.45745595 3.796875 26.5 C-0.49976596 30.72701946 -3.72384855 33.63306853 -9.890625 33.8125 C-14.95829224 33.73217674 -18.394016 32.91272963 -22.203125 29.5 C-26.03885798 25.36247077 -27.5250231 21.57481238 -27.703125 15.9375 C-27.34525873 9.29403393 -25.74790333 4.6475402 -20.765625 0.125 C-14.27954069 -5.30183564 -6.7435217 -4.60023186 0 0 Z " fill="#1B1B1B" transform="translate(535.203125,314.5)"/>
<path d="M0 0 C1.9375 1.625 1.9375 1.625 3 4 C2.77962372 7.67293796 2.63033454 9.36966546 0 12 C-3.10347254 12.33015665 -5.15781176 12.50531294 -7.875 10.875 C-9.52854531 8.11909116 -9.39365568 6.14924548 -9 3 C-6.79848461 -0.66919231 -4.00961374 -0.58473534 0 0 Z " fill="#3A3B3B" transform="translate(243,741)"/>
<path d="M0 0 C1.9375 1.625 1.9375 1.625 3 4 C2.875 7.125 2.875 7.125 2 10 C-1.22143276 12.14762184 -2.2595467 12.561068 -6 12 C-8.2855347 9.87208838 -8.92303658 8.52591672 -9.375 5.4375 C-9 3 -9 3 -7.875 1.1875 C-5.09996189 -0.57002414 -3.21070255 -0.46822746 0 0 Z " fill="#3A3B3B" transform="translate(281,741)"/>
<path d="M0 0 C1.9375 1.625 1.9375 1.625 3 4 C2.875 7.125 2.875 7.125 2 10 C-1.23253796 12.15502531 -2.25150923 12.46856135 -6 12 C-7.8125 10.875 -7.8125 10.875 -9 9 C-9.39365568 5.85075452 -9.52854531 3.88090884 -7.875 1.125 C-5.08893958 -0.54663625 -3.18011138 -0.46376624 0 0 Z " fill="#3B3C3C" transform="translate(243,700)"/>
<path d="M0 0 C2.9375 0.75 2.9375 0.75 4.9375 2.75 C4.47596154 9.21153846 4.47596154 9.21153846 1.9375 11.75 C-4.52403846 11.28846154 -4.52403846 11.28846154 -7.0625 8.75 C-6.875 5.25 -6.875 5.25 -6.0625 1.75 C-3.0625 -0.25 -3.0625 -0.25 0 0 Z " fill="#3A3B3B" transform="translate(127.0625,700.25)"/>
<path d="M0 0 C2 3 2 3 1.8125 6.5625 C1 10 1 10 -2 12 C-4.78758532 11.7909311 -6.50703708 11.33997443 -8.8125 9.75 C-10.45364719 7.3314673 -10.42967368 5.86449123 -10 3 C-7.66359177 -0.98563758 -4.22275562 -0.46066425 0 0 Z " fill="#3B3C3B" transform="translate(320,782)"/>
<path d="M0 0 C1.9375 1.0625 1.9375 1.0625 3 3 C2.875 6.5625 2.875 6.5625 2 10 C-1 12 -1 12 -3.5 11.8125 C-6.23145737 10.92477635 -7.39120004 10.37086309 -9 8 C-9.42822025 5.14519831 -9.40659584 3.65507108 -7.875 1.1875 C-5.12844028 -0.55198782 -3.18153026 -0.39769128 0 0 Z " fill="#3C3C3C" transform="translate(243,782)"/>
<path d="M0 0 C2.75387823 0.89501042 3.96886237 1.34566714 5.5 3.8125 C5.27669287 7.45984979 5.11627165 9.19622835 2.5 11.8125 C-0.59771665 12.14204432 -2.67331023 12.26584601 -5.4375 10.75 C-7.16665678 7.59683176 -6.3590699 5.18741745 -5.5 1.8125 C-2.5 -0.1875 -2.5 -0.1875 0 0 Z " fill="#3B3C3C" transform="translate(240.5,904.1875)"/>
<path d="M0 0 C2 3 2 3 1.8125 6.0625 C1 9 1 9 -2 11 C-5.0625 10.8125 -5.0625 10.8125 -8 10 C-10.15502531 6.76746204 -10.46856135 5.74849077 -10 2 C-7.59684073 -2.24086929 -4.21511384 -1.07293807 0 0 Z " fill="#3A3B3B" transform="translate(130,742)"/>
<path d="M0 0 C2.32528287 2.32528287 2.29511025 2.84665898 2.3125 6 C2.32925781 6.70125 2.34601562 7.4025 2.36328125 8.125 C2.18345703 9.053125 2.18345703 9.053125 2 10 C-1.23253796 12.15502531 -2.25150923 12.46856135 -6 12 C-7.8125 10.875 -7.8125 10.875 -9 9 C-9.39365568 5.85075452 -9.52854531 3.88090884 -7.875 1.125 C-5.15781176 -0.50531294 -3.10347254 -0.33015665 0 0 Z " fill="#3B3B3B" transform="translate(53,741)"/>
<path d="M0 0 C2 3 2 3 1.8125 5.5 C0.92477635 8.23145737 0.37086309 9.39120004 -2 11 C-4.85480169 11.42822025 -6.34492892 11.40659584 -8.8125 9.875 C-10.57002414 7.09996189 -10.46822746 5.21070255 -10 2 C-6.96457461 -1.61916104 -4.32701626 -1.31691799 0 0 Z " fill="#3B3C3C" transform="translate(92,619)"/>
<path d="M0 0 C2.9375 0.8125 2.9375 0.8125 4.9375 2.8125 C4.47596154 9.27403846 4.47596154 9.27403846 1.9375 11.8125 C-1.39308011 12.33838107 -2.66270349 12.09656594 -5.4375 10.125 C-7.0625 7.8125 -7.0625 7.8125 -7 5.25 C-5.42671877 1.15946879 -4.57943722 -0.28037371 0 0 Z " fill="#3A3B3B" transform="translate(165.0625,700.1875)"/>
<path d="M0 0 C1.875 1.625 1.875 1.625 3 4 C2.875 7.125 2.875 7.125 2 10 C-1 12 -1 12 -3.5 11.8125 C-6.25387823 10.91748958 -7.46886237 10.46683286 -9 8 C-8.875 4.9375 -8.875 4.9375 -8 2 C-4.77856724 -0.14762184 -3.7404533 -0.561068 0 0 Z " fill="#3A3B3B" transform="translate(167,618)"/>
<path d="M0 0 C3.04712124 1.14267047 4.04750315 2.03250629 5.5 4.9375 C5.25925978 8.30786311 4.91201979 9.52548021 2.5 11.9375 C-0.4375 12.3125 -0.4375 12.3125 -3.5 11.9375 C-5.4375 10.25 -5.4375 10.25 -6.5 7.9375 C-6.36008938 5.06933219 -5.83903136 3.44604704 -4.25 1.0625 C-2.5 -0.0625 -2.5 -0.0625 0 0 Z " fill="#3B3B3C" transform="translate(126.5,904.0625)"/>
<path d="M0 0 C2.4375 0.75 2.4375 0.75 4.4375 2.75 C4.6875 6.25 4.6875 6.25 4.4375 9.75 C2.4375 11.75 2.4375 11.75 -0.5 12.0625 C-3.5625 11.75 -3.5625 11.75 -5.5 10.6875 C-7.22915678 7.53433176 -6.4215699 5.12491745 -5.5625 1.75 C-2.5625 -0.25 -2.5625 -0.25 0 0 Z " fill="#3B3C3C" transform="translate(50.5625,904.25)"/>
<path d="M0 0 C3 0.25 3 0.25 5 2.25 C5.30078125 4.125 5.30078125 4.125 5.3125 6.25 C5.32925781 6.95125 5.34601562 7.6525 5.36328125 8.375 C5.18345703 9.303125 5.18345703 9.303125 5 10.25 C2 12.25 2 12.25 -1.0625 12.0625 C-4 11.25 -4 11.25 -6 8.25 C-5.60542355 3.41643847 -5.36221834 0.44685153 0 0 Z " fill="#3B3B3B" transform="translate(50,821.75)"/>
<path d="M0 0 C1.8125 1.0625 1.8125 1.0625 3 3 C3.375 6.5625 3.375 6.5625 3 10 C-0.23253796 12.15502531 -1.25150923 12.46856135 -5 12 C-6.8125 10.875 -6.8125 10.875 -8 9 C-8.39769128 5.81846974 -8.55198782 3.87155972 -6.8125 1.125 C-4.34492892 -0.40659584 -2.85480169 -0.42822025 0 0 Z " fill="#3B3C3C" transform="translate(205,618)"/>
<path d="M0 0 C2.32528287 2.32528287 2.29511025 2.84665898 2.3125 6 C2.32925781 6.70125 2.34601562 7.4025 2.36328125 8.125 C2.18345703 9.053125 2.18345703 9.053125 2 10 C-1 12 -1 12 -4.0625 11.75 C-7 11 -7 11 -9 9 C-8.8125 5.5 -8.8125 5.5 -8 2 C-4.77626323 -0.14915785 -3.73296326 -0.38286803 0 0 Z " fill="#3B3C3C" transform="translate(53,618)"/>
<path d="M0 0 C1.9375 1.0625 1.9375 1.0625 3 3 C2.55555556 9.44444444 2.55555556 9.44444444 1 11 C-4.8410596 11.37086093 -4.8410596 11.37086093 -7 11 C-9.15502531 7.76746204 -9.46856135 6.74849077 -9 3 C-6.73529086 -0.64869805 -4.03159541 -0.50394943 0 0 Z " fill="#3B3C3C" transform="translate(52,452)"/>
<path d="M0 0 C1.875 1.625 1.875 1.625 3 4 C2.77962372 7.67293796 2.63033454 9.36966546 0 12 C-3 12.25 -3 12.25 -6 12 C-8 10 -8 10 -8.3125 6.5625 C-8 3 -8 3 -6.8125 1.0625 C-4.31219126 -0.40319823 -2.84869344 -0.49852135 0 0 Z " fill="#3B3B3C" transform="translate(434,904)"/>
<path d="M0 0 C2.4375 0.75 2.4375 0.75 4.4375 2.75 C4.6875 6.25 4.6875 6.25 4.4375 9.75 C2.4375 11.75 2.4375 11.75 -0.5 12.0625 C-3.5625 11.75 -3.5625 11.75 -5.5 10.6875 C-7.22915678 7.53433176 -6.4215699 5.12491745 -5.5625 1.75 C-2.5625 -0.25 -2.5625 -0.25 0 0 Z " fill="#3C3C3C" transform="translate(88.5625,904.25)"/>
<path d="M0 0 C3.625 0.3125 3.625 0.3125 5.625 2 C6.88826211 4.92129364 6.64516252 6.33048647 5.625 9.3125 C3.625 11.3125 3.625 11.3125 0.6875 11.625 C-2.375 11.3125 -2.375 11.3125 -4.3125 10.25 C-6.00681173 7.16037273 -5.11451685 4.64032582 -4.375 1.3125 C-3.375 0.3125 -3.375 0.3125 0 0 Z " fill="#3B3C3C" transform="translate(202.375,781.6875)"/>
<path d="M0 0 C2.5 0.4375 2.5 0.4375 4.3125 2.125 C5.73011404 4.88561682 6.04893012 6.37917507 5.5 9.4375 C3.8125 11.3125 3.8125 11.3125 1.5 12.4375 C-1.73837199 12.35851532 -3.03991925 11.88224473 -5.375 9.625 C-6.5 7.4375 -6.5 7.4375 -6.375 5.375 C-4.87189414 2.04669417 -3.67066005 0.64236551 0 0 Z " fill="#3A3B3B" transform="translate(164.5,740.5625)"/>
<path d="M0 0 C2 2 2 2 2.3125 5.4375 C2 9 2 9 0.875 11 C-2.01807013 12.54297074 -3.93640275 11.91256088 -7 11 C-9.15502531 7.76746204 -9.46856135 6.74849077 -9 3 C-6.73157826 -0.65467947 -4.03373275 -0.4291205 0 0 Z " fill="#3B3C3C" transform="translate(91,741)"/>
<path d="M0 0 C2.3125 2.5 2.3125 2.5 4 5 C2.92598892 7.91517292 2.22189824 9.77810176 0 12 C-5.45454545 11.54545455 -5.45454545 11.54545455 -8 9 C-8.333728 5.86295684 -8.52849028 3.83445834 -6.8125 1.125 C-4.27353509 -0.45090926 -2.93597381 -0.57287294 0 0 Z " fill="#3B3C3C" transform="translate(205,700)"/>
<path d="M0 0 C1.875 1.1875 1.875 1.1875 3 3 C3.42822025 5.85480169 3.40659584 7.34492892 1.875 9.8125 C-0.87155972 11.55198782 -2.81846974 11.39769128 -6 11 C-7.9375 9.9375 -7.9375 9.9375 -9 8 C-8.8125 4.375 -8.8125 4.375 -8 1 C-5.20129973 -0.39935013 -3.09501208 -0.25265405 0 0 Z " fill="#3B3C3C" transform="translate(243,659)"/>
<path d="M0 0 C1.875 1.125 1.875 1.125 3 3 C2.86798506 6.16835865 2.47575689 8.26257683 0.75 10.9375 C-1 12 -1 12 -3.5 11.875 C-6.22274244 10.92204015 -7.47489421 10.45711489 -9 8 C-8.875 4.9375 -8.875 4.9375 -8 2 C-4.76746204 -0.15502531 -3.74849077 -0.46856135 0 0 Z " fill="#3B3B3C" transform="translate(91,536)"/>
<path d="M0 0 C6.57692308 0.57692308 6.57692308 0.57692308 8 2 C8.37086093 7.8410596 8.37086093 7.8410596 8 10 C5 12 5 12 1.9375 11.8125 C-1 11 -1 11 -3 8 C-2.55555556 2.55555556 -2.55555556 2.55555556 0 0 Z " fill="#3B3C3C" transform="translate(47,536)"/>
<path d="M0 0 C1.9375 1.125 1.9375 1.125 3 3 C2.77669287 6.64734979 2.61627165 8.38372835 0 11 C-3.13704316 11.333728 -5.16554166 11.52849028 -7.875 9.8125 C-9.40659584 7.34492892 -9.42822025 5.85480169 -9 3 C-6.73529086 -0.64869805 -4.03159541 -0.50394943 0 0 Z " fill="#3C3D3D" transform="translate(243,986)"/>
<path d="M0 0 C2.9375 0.8125 2.9375 0.8125 4.9375 2.8125 C5.25 6.3125 5.25 6.3125 4.9375 9.8125 C1.71606724 11.96012184 0.6779533 12.373568 -3.0625 11.8125 C-5.3480347 9.68458838 -5.98553658 8.33841672 -6.4375 5.25 C-6.0625 2.8125 -6.0625 2.8125 -4.9375 0.9375 C-3.0625 -0.1875 -3.0625 -0.1875 0 0 Z " fill="#3C3C3C" transform="translate(203.0625,904.1875)"/>
<path d="M0 0 C1.8125 1.125 1.8125 1.125 3 3 C3.39769128 6.18153026 3.55198782 8.12844028 1.8125 10.875 C-0.65507108 12.40659584 -2.14519831 12.42822025 -5 12 C-6.8125 10.875 -6.8125 10.875 -8 9 C-8.39769128 5.81846974 -8.55198782 3.87155972 -6.8125 1.125 C-4.34492892 -0.40659584 -2.85480169 -0.42822025 0 0 Z " fill="#3B3C3B" transform="translate(318,741)"/>
<path d="M0 0 C1.8125 1.125 1.8125 1.125 3 3 C3.39769128 6.18153026 3.55198782 8.12844028 1.8125 10.875 C-0.65507108 12.40659584 -2.14519831 12.42822025 -5 12 C-6.8125 10.875 -6.8125 10.875 -8 9 C-8.39769128 5.81846974 -8.55198782 3.87155972 -6.8125 1.125 C-4.34492892 -0.40659584 -2.85480169 -0.42822025 0 0 Z " fill="#3B3C3C" transform="translate(14,618)"/>
<path d="M0 0 C2.4375 0.75 2.4375 0.75 4.4375 2.75 C4.6875 6.25 4.6875 6.25 4.4375 9.75 C2.4375 11.75 2.4375 11.75 -0.5 12.125 C-3.5625 11.75 -3.5625 11.75 -5.5 10.125 C-6.93754343 6.91166762 -6.57623739 5.08085144 -5.5625 1.75 C-2.5625 -0.25 -2.5625 -0.25 0 0 Z " fill="#3B3C3C" transform="translate(278.5625,904.25)"/>
<path d="M0 0 C2.4375 0.75 2.4375 0.75 4.4375 2.75 C4.771228 5.88704316 4.96599028 7.91554166 3.25 10.625 C0.78242892 12.15659584 -0.70769831 12.17822025 -3.5625 11.75 C-5.4375 10.6875 -5.4375 10.6875 -6.5625 8.75 C-6.4375 5.1875 -6.4375 5.1875 -5.5625 1.75 C-2.5625 -0.25 -2.5625 -0.25 0 0 Z " fill="#3B3C3C" transform="translate(12.5625,904.25)"/>
<path d="M0 0 C2 2 2 2 2.3125 4.9375 C2 8 2 8 0.8125 9.875 C-1.65507108 11.40659584 -3.14519831 11.42822025 -6 11 C-7.8125 9.875 -7.8125 9.875 -9 8 C-9.4375 5 -9.4375 5 -9 2 C-6.12524616 -1.3006433 -4.03854228 -1.38160657 0 0 Z " fill="#3B3C3C" transform="translate(358,905)"/>
<path d="M0 0 C3.5 0.25 3.5 0.25 5.5 2.25 C5.75 5.75 5.75 5.75 5.5 9.25 C3.5 11.25 3.5 11.25 0.5625 11.5625 C-2.5 11.25 -2.5 11.25 -4.375 10.125 C-6.00531294 7.40781176 -5.83015665 5.35347254 -5.5 2.25 C-3.5 0.25 -3.5 0.25 0 0 Z " fill="#3C3C3C" transform="translate(354.5,863.75)"/>
<path d="M0 0 C3.0625 0.3125 3.0625 0.3125 4.9375 1.5 C6.46909584 3.96757108 6.49072025 5.45769831 6.0625 8.3125 C4.9375 10.125 4.9375 10.125 3.0625 11.3125 C0.0625 11.75 0.0625 11.75 -2.9375 11.3125 C-4.875 9.625 -4.875 9.625 -5.9375 7.3125 C-5.61764525 2.8345335 -4.76027546 0.50641228 0 0 Z " fill="#3B3C3C" transform="translate(277.9375,863.6875)"/>
<path d="M0 0 C1.9375 1.6875 1.9375 1.6875 3 4 C2.75925978 7.37036311 2.41201979 8.58798021 0 11 C-3.13704316 11.333728 -5.16554166 11.52849028 -7.875 9.8125 C-9.40659584 7.34492892 -9.42822025 5.85480169 -9 3 C-6.74280427 -0.63659311 -4.02330328 -0.58673173 0 0 Z " fill="#3B3C3C" transform="translate(168,782)"/>
<path d="M0 0 C2.9375 0.8125 2.9375 0.8125 4.9375 2.8125 C5.271228 5.94954316 5.46599028 7.97804166 3.75 10.6875 C1.28242892 12.21909584 -0.20769831 12.24072025 -3.0625 11.8125 C-4.875 10.6875 -4.875 10.6875 -6.0625 8.8125 C-6.45954314 5.63615485 -6.56183741 3.67246999 -4.9375 0.875 C-3.0625 -0.1875 -3.0625 -0.1875 0 0 Z " fill="#3B3C3C" transform="translate(203.0625,741.1875)"/>
<path d="M0 0 C1.8125 1.125 1.8125 1.125 3 3 C3.39704314 6.17634515 3.49933741 8.14003001 1.875 10.9375 C-0 12 -0 12 -3.0625 11.875 C-6 11 -6 11 -8 8 C-7.75 4.375 -7.75 4.375 -7 1 C-4.45132831 -0.27433584 -2.82594567 -0.27570202 0 0 Z " fill="#3B3C3C" transform="translate(14,536)"/>
<path d="M0 0 C2.4375 0.75 2.4375 0.75 4.4375 2.75 C4.771228 5.88704316 4.96599028 7.91554166 3.25 10.625 C0.78242892 12.15659584 -0.70769831 12.17822025 -3.5625 11.75 C-5.4375 10.6875 -5.4375 10.6875 -6.5625 8.75 C-6.4375 5.1875 -6.4375 5.1875 -5.5625 1.75 C-2.5625 -0.25 -2.5625 -0.25 0 0 Z " fill="#3C3C3C" transform="translate(316.5625,904.25)"/>
<path d="M0 0 C2.9375 0.8125 2.9375 0.8125 4.9375 2.8125 C5.1875 5.8125 5.1875 5.8125 4.9375 8.8125 C2.9375 10.8125 2.9375 10.8125 -0.5 11.125 C-4.0625 10.8125 -4.0625 10.8125 -6.0625 9.625 C-7.0625 7.8125 -7.0625 7.8125 -6.9375 5.3125 C-5.48244102 1.15518862 -4.58539448 -0.28073844 0 0 Z " fill="#3A3B3B" transform="translate(127.0625,618.1875)"/>
<path d="M0 0 C1.9375 1.6875 1.9375 1.6875 3 4 C2.75925978 7.37036311 2.41201979 8.58798021 0 11 C-3.13704316 11.333728 -5.16554166 11.52849028 -7.875 9.8125 C-9.40659584 7.34492892 -9.42822025 5.85480169 -9 3 C-6.74280427 -0.63659311 -4.02330328 -0.58673173 0 0 Z " fill="#3B3C3C" transform="translate(53,495)"/>
<path d="M0 0 C2 2 2 2 2.25 5.5 C2 9 2 9 0 11 C-4.05261287 11.34490322 -5.54754176 11.30163882 -9 9 C-9.39964378 5.8694571 -9.52149743 3.86916239 -7.875 1.125 C-5.15781176 -0.50531294 -3.10347254 -0.33015665 0 0 Z " fill="#3B3B3C" transform="translate(358,986)"/>
<path d="M0 0 C2.9375 0.875 2.9375 0.875 4.9375 3.875 C4.49305556 9.31944444 4.49305556 9.31944444 1.9375 11.875 C-1.625 11.625 -1.625 11.625 -5.0625 10.875 C-6.46185013 8.07629973 -6.31515405 5.97001208 -6.0625 2.875 C-4.31924047 -0.1272803 -3.48919154 -0.14241598 0 0 Z " fill="#3B3C3C" transform="translate(394.0625,904.125)"/>
<path d="M0 0 C3.0625 0.3125 3.0625 0.3125 5 1.4375 C6.0625 3.3125 6.0625 3.3125 5.875 6.375 C5.0625 9.3125 5.0625 9.3125 3.0625 11.3125 C0.125 11.75 0.125 11.75 -2.9375 11.3125 C-4.875 9.0625 -4.875 9.0625 -5.9375 6.3125 C-5.58717115 2.2253301 -4.18889879 0.44562753 0 0 Z " fill="#3C3C3D" transform="translate(239.9375,863.6875)"/>
<path d="M0 0 C3.0625 0.3125 3.0625 0.3125 5 1.4375 C6.0625 3.3125 6.0625 3.3125 5.875 6.375 C5.0625 9.3125 5.0625 9.3125 3.0625 11.3125 C-0.0679173 11.64552312 -2.11648298 11.78921956 -4.875 10.1875 C-5.9375 8.3125 -5.9375 8.3125 -5.75 5.25 C-4.6778982 1.37393966 -4.050591 0.43091394 0 0 Z " fill="#3B3B3C" transform="translate(49.9375,781.6875)"/>
<path d="M0 0 C2 2 2 2 2.375 4.9375 C2 8 2 8 0.3125 9.9375 C-2.61449654 11.28233625 -3.98584989 11.03115662 -7 10 C-9 8 -9 8 -9.375 5.0625 C-9 2 -9 2 -7.3125 0.0625 C-4.38550346 -1.28233625 -3.01415011 -1.03115662 0 0 Z " fill="#3B3C3C" transform="translate(15,742)"/>
<path d="M0 0 C1.7325 0.1546875 1.7325 0.1546875 3.5 0.3125 C5.65502531 3.54503796 5.96856135 4.56400923 5.5 8.3125 C4.375 10.125 4.375 10.125 2.5 11.3125 C-0.5625 11.625 -0.5625 11.625 -3.5 11.3125 C-5.5 9.3125 -5.5 9.3125 -5.75 5.8125 C-5.40893869 1.0376416 -4.76133169 0.4251189 0 0 Z " fill="#3B3C3C" transform="translate(506.5,985.6875)"/>
<path d="M0 0 C3.5 0.25 3.5 0.25 5.5 2.25 C5.833728 5.38704316 6.02849028 7.41554166 4.3125 10.125 C1.84492892 11.65659584 0.35480169 11.67822025 -2.5 11.25 C-4.3125 10.125 -4.3125 10.125 -5.5 8.25 C-5.8125 5.1875 -5.8125 5.1875 -5.5 2.25 C-3.5 0.25 -3.5 0.25 0 0 Z " fill="#3C3C3D" transform="translate(11.5,985.75)"/>
<path d="M0 0 C3.5 0.25 3.5 0.25 5.5 2.25 C5.82954432 5.34771665 5.95334601 7.42331023 4.4375 10.1875 C1.31857551 11.89787795 -1.15557801 11.05513863 -4.5 10.25 C-5.88125018 7.48749964 -5.69079306 5.30268901 -5.5 2.25 C-3.5 0.25 -3.5 0.25 0 0 Z " fill="#3C3D3D" transform="translate(87.5,945.75)"/>
<path d="M0 0 C2.4375 0.8125 2.4375 0.8125 4.4375 2.8125 C4.78240322 6.86511287 4.73913882 8.36004176 2.4375 11.8125 C-0.9375 11.5 -0.9375 11.5 -4.5625 10.8125 C-6.5625 7.8125 -6.5625 7.8125 -6.375 5.3125 C-5.14642287 1.53226269 -4.18808952 -0.30644557 0 0 Z " fill="#3B3B3C" transform="translate(469.5625,904.1875)"/>
<path d="M0 0 C3.0625 0.375 3.0625 0.375 5 2.0625 C6.34483625 4.98949654 6.09365662 6.36084989 5.0625 9.375 C3.0625 11.375 3.0625 11.375 0.125 11.75 C-2.9375 11.375 -2.9375 11.375 -4.875 9.6875 C-6.21983625 6.76050346 -5.96865662 5.38915011 -4.9375 2.375 C-2.9375 0.375 -2.9375 0.375 0 0 Z " fill="#3B3C3C" transform="translate(125.9375,863.625)"/>
<path d="M0 0 C3.0625 0.3125 3.0625 0.3125 5 1.375 C6.69431173 4.46462727 5.80201685 6.98467418 5.0625 10.3125 C4.0625 11.3125 4.0625 11.3125 1.1875 11.5 C-1.9375 11.3125 -1.9375 11.3125 -4.9375 9.3125 C-5.25 5.8125 -5.25 5.8125 -4.9375 2.3125 C-2.9375 0.3125 -2.9375 0.3125 0 0 Z " fill="#3B3C3C" transform="translate(125.9375,658.6875)"/>
<path d="M0 0 C6.57692308 0.57692308 6.57692308 0.57692308 8 2 C8.14115161 4.67058851 8.04247107 7.32432238 8 10 C5.8128711 11.32789969 4.52279544 12.04752686 1.9375 11.8125 C-0.4300832 10.81964253 -1.58112996 10.16564375 -3 8 C-2.77669287 4.35265021 -2.61627165 2.61627165 0 0 Z " fill="#3A3B3B" transform="translate(123,536)"/>
<path d="M0 0 C3.5 0.25 3.5 0.25 5.5 2.25 C5.833728 5.38704316 6.02849028 7.41554166 4.3125 10.125 C1.84492892 11.65659584 0.35480169 11.67822025 -2.5 11.25 C-4.3125 10.125 -4.3125 10.125 -5.5 8.25 C-5.8125 5.1875 -5.8125 5.1875 -5.5 2.25 C-3.5 0.25 -3.5 0.25 0 0 Z " fill="#3B3C3C" transform="translate(125.5,985.75)"/>
<path d="M0 0 C2 2 2 2 2.3125 4.9375 C2 8 2 8 0.8125 9.875 C-1.65507108 11.40659584 -3.14519831 11.42822025 -6 11 C-7.8125 9.875 -7.8125 9.875 -9 8 C-9.375 4.9375 -9.375 4.9375 -9 2 C-5.54754176 -0.30163882 -4.05261287 -0.34490322 0 0 Z " fill="#3C3D3D" transform="translate(91,986)"/>
<path d="M0 0 C3.5625 0.1875 3.5625 0.1875 5.5625 2.1875 C5.896228 5.32454316 6.09099028 7.35304166 4.375 10.0625 C1.90742892 11.59409584 0.41730169 11.61572025 -2.4375 11.1875 C-4.3125 10.125 -4.3125 10.125 -5.4375 8.1875 C-4.89124449 0.26679515 -4.89124449 0.26679515 0 0 Z " fill="#3C3D3D" transform="translate(49.4375,985.8125)"/>
<path d="M0 0 C3.5 0.25 3.5 0.25 5.5 2.25 C5.833728 5.38704316 6.02849028 7.41554166 4.3125 10.125 C1.84492892 11.65659584 0.35480169 11.67822025 -2.5 11.25 C-4.3125 10.125 -4.3125 10.125 -5.5 8.25 C-5.8125 5.1875 -5.8125 5.1875 -5.5 2.25 C-3.5 0.25 -3.5 0.25 0 0 Z " fill="#3A3B3B" transform="translate(468.5,945.75)"/>
<path d="M0 0 C2 2 2 2 2.25 5.5 C2 9 2 9 0 11 C-3.13704316 11.333728 -5.16554166 11.52849028 -7.875 9.8125 C-9.40659584 7.34492892 -9.42822025 5.85480169 -9 3 C-6.73157826 -0.65467947 -4.03373275 -0.4291205 0 0 Z " fill="#3B3C3C" transform="translate(206,864)"/>
<path d="M0 0 C2 2 2 2 2.25 5.5 C2 9 2 9 0 11 C-3.13704316 11.333728 -5.16554166 11.52849028 -7.875 9.8125 C-9.40659584 7.34492892 -9.42822025 5.85480169 -9 3 C-6.73157826 -0.65467947 -4.03373275 -0.4291205 0 0 Z " fill="#3C3D3D" transform="translate(53,864)"/>
<path d="M0 0 C2.30163882 3.45245824 2.34490322 4.94738713 2 9 C0 11 0 11 -2.9375 11.3125 C-6 11 -6 11 -7.9375 9.9375 C-9.64787795 6.81857551 -8.80513863 4.34442199 -8 1 C-5.21136993 -0.39431504 -3.07921132 -0.25660094 0 0 Z " fill="#3C3C3C" transform="translate(15,864)"/>
<path d="M0 0 C1.8125 1.125 1.8125 1.125 3 3 C3.3125 6.0625 3.3125 6.0625 3 9 C1 11 1 11 -2.5 11.25 C-6 11 -6 11 -8 9 C-8.333728 5.86295684 -8.52849028 3.83445834 -6.8125 1.125 C-4.34492892 -0.40659584 -2.85480169 -0.42822025 0 0 Z " fill="#3B3C3C" transform="translate(243,822)"/>
<path d="M0 0 C2 2 2 2 2.25 5.5 C2 9 2 9 0 11 C-3.13704316 11.333728 -5.16554166 11.52849028 -7.875 9.8125 C-9.40659584 7.34492892 -9.42822025 5.85480169 -9 3 C-6.73157826 -0.65467947 -4.03373275 -0.4291205 0 0 Z " fill="#3B3C3C" transform="translate(358,782)"/>
<path d="M0 0 C2 2 2 2 2.25 5.5 C2 9 2 9 0 11 C-3.13704316 11.333728 -5.16554166 11.52849028 -7.875 9.8125 C-9.40659584 7.34492892 -9.42822025 5.85480169 -9 3 C-6.73157826 -0.65467947 -4.03373275 -0.4291205 0 0 Z " fill="#3C3D3D" transform="translate(53,577)"/>
<path d="M0 0 C1.38125018 2.76250036 1.19079306 4.94731099 1 8 C-1 10 -1 10 -3.9375 10.25 C-7 10 -7 10 -10 8 C-10.39907251 4.87393202 -10.46880951 2.85488793 -8.9375 0.0625 C-5.81857551 -1.64787795 -3.34442199 -0.80513863 0 0 Z " fill="#3C3C3C" transform="translate(16,578)"/>
<path d="M0 0 C1 1 1 1 1.1875 4.4375 C1 8 1 8 -1 10 C-4.13704316 10.333728 -6.16554166 10.52849028 -8.875 8.8125 C-10.40659584 6.34492892 -10.42822025 4.85480169 -10 2 C-7.59027568 -2.25245468 -4.23782457 -0.94173879 0 0 Z " fill="#3B3C3C" transform="translate(92,496)"/>
<path d="M0 0 C1 1 1 1 1.1875 4.4375 C1 8 1 8 -1 10 C-4.5 10.3125 -4.5 10.3125 -8 10 C-10.14762184 6.77856724 -10.561068 5.7404533 -10 2 C-6.88154874 -1.59821299 -4.38661903 -1.16976507 0 0 Z " fill="#3B3C3C" transform="translate(16,453)"/>
<path d="M0 0 C2 2 2 2 2.3125 5.5 C2.1578125 7.2325 2.1578125 7.2325 2 9 C-1.23253796 11.15502531 -2.25150923 11.46856135 -6 11 C-7.8125 9.8125 -7.8125 9.8125 -9 8 C-9.42822025 5.14519831 -9.40659584 3.65507108 -7.875 1.1875 C-5.16554166 -0.52849028 -3.13704316 -0.333728 0 0 Z " fill="#3B3C3C" transform="translate(167,986)"/>
<path d="M0 0 C2 2 2 2 2.3125 5.5 C2.1578125 7.2325 2.1578125 7.2325 2 9 C-1.23253796 11.15502531 -2.25150923 11.46856135 -6 11 C-7.8125 9.8125 -7.8125 9.8125 -9 8 C-9.42822025 5.14519831 -9.40659584 3.65507108 -7.875 1.1875 C-5.16554166 -0.52849028 -3.13704316 -0.333728 0 0 Z " fill="#3B3C3C" transform="translate(129,946)"/>
<path d="M0 0 C2 2 2 2 2.25 5 C2 8 2 8 0 10 C-3.5 10.25 -3.5 10.25 -7 10 C-9 8 -9 8 -9.375 5.0625 C-9 2 -9 2 -7.3125 0.0625 C-4.38550346 -1.28233625 -3.01415011 -1.03115662 0 0 Z " fill="#3A3B3B" transform="translate(15,823)"/>
<path d="M0 0 C3 0.25 3 0.25 5 2.25 C5.25 5.75 5.25 5.75 5 9.25 C3 11.25 3 11.25 0.0625 11.5625 C-3 11.25 -3 11.25 -4.9375 10.125 C-6 8.25 -6 8.25 -5.8125 5.1875 C-4.72790827 1.26628376 -4.11078454 0.34256538 0 0 Z " fill="#3B3C3C" transform="translate(278,821.75)"/>
<path d="M0 0 C1.7325 0.1546875 1.7325 0.1546875 3.5 0.3125 C5.65502531 3.54503796 5.96856135 4.56400923 5.5 8.3125 C4.4375 10.1875 4.4375 10.1875 2.5 11.3125 C-1.125 11.125 -1.125 11.125 -4.5 10.3125 C-5.88125018 7.54999964 -5.69079306 5.36518901 -5.5 2.3125 C-3.5 0.3125 -3.5 0.3125 0 0 Z " fill="#3B3C3C" transform="translate(126.5,781.6875)"/>
<path d="M0 0 C2.4375 0.75 2.4375 0.75 4.4375 2.75 C4.77411952 5.9142235 4.93693411 7.93513382 3.25 10.6875 C1.4375 11.75 1.4375 11.75 -1.0625 11.625 C-3.78524244 10.67204015 -5.03739421 10.20711489 -6.5625 7.75 C-6.4375 4.6875 -6.4375 4.6875 -5.5625 1.75 C-2.5625 -0.25 -2.5625 -0.25 0 0 Z " fill="#3B3C3C" transform="translate(88.5625,700.25)"/>
<path d="M0 0 C2.875 0.6875 2.875 0.6875 3.875 1.6875 C4.24586093 7.5285596 4.24586093 7.5285596 3.875 9.6875 C0.875 11.6875 0.875 11.6875 -1.6875 11.4375 C-4.125 10.6875 -4.125 10.6875 -6.125 8.6875 C-6.4375 5.1875 -6.4375 5.1875 -6.125 1.6875 C-3.125 -0.3125 -3.125 -0.3125 0 0 Z " fill="#3B3C3C" transform="translate(279.125,700.3125)"/>
<path d="M0 0 C1.8125 1.125 1.8125 1.125 3 3 C3.3125 6.0625 3.3125 6.0625 3 9 C1 11 1 11 -1.9375 11.25 C-5 11 -5 11 -8 9 C-8.40373601 5.83740129 -8.54458662 3.85987361 -6.8125 1.125 C-4.34492892 -0.40659584 -2.85480169 -0.42822025 0 0 Z " fill="#3B3C3C" transform="translate(52,700)"/>
<path d="M0 0 C1 1 1 1 1.1875 4.4375 C1 8 1 8 -1 10 C-4.13704316 10.333728 -6.16554166 10.52849028 -8.875 8.8125 C-10.40659584 6.34492892 -10.42822025 4.85480169 -10 2 C-7.59027568 -2.25245468 -4.23782457 -0.94173879 0 0 Z " fill="#3C3C3C" transform="translate(207,660)"/>
<path d="M0 0 C1.175625 0.0825 2.35125 0.165 3.5625 0.25 C5.71752531 3.48253796 6.03106135 4.50150923 5.5625 8.25 C4.375 10.0625 4.375 10.0625 2.5625 11.25 C-0.28246772 11.67674516 -1.80102369 11.61066991 -4.3125 10.1875 C-6.10060335 7.10798867 -5.18342606 4.60666727 -4.4375 1.25 C-3.4375 0.25 -3.4375 0.25 0 0 Z " fill="#3B3C3C" transform="translate(430.4375,945.75)"/>
<path d="M0 0 C2 2 2 2 2.3125 4.9375 C2 8 2 8 0.8125 9.875 C-1.65507108 11.40659584 -3.14519831 11.42822025 -6 11 C-7.875 9.9375 -7.875 9.9375 -9 8 C-8.8125 4.375 -8.8125 4.375 -8 1 C-5.23749964 -0.38125018 -3.05268901 -0.19079306 0 0 Z " fill="#3B3C3C" transform="translate(358,946)"/>
<path d="M0 0 C2 2 2 2 2.3125 4.9375 C2 8 2 8 0.8125 9.875 C-1.65507108 11.40659584 -3.14519831 11.42822025 -6 11 C-7.875 9.9375 -7.875 9.9375 -9 8 C-8.8125 4.375 -8.8125 4.375 -8 1 C-5.23749964 -0.38125018 -3.05268901 -0.19079306 0 0 Z " fill="#3B3C3C" transform="translate(53,946)"/>
<path d="M0 0 C3.0625 0.3125 3.0625 0.3125 4.9375 1.5 C6.46909584 3.96757108 6.49072025 5.45769831 6.0625 8.3125 C4.875 10.125 4.875 10.125 3.0625 11.3125 C0.20769831 11.74072025 -1.28242892 11.71909584 -3.75 10.1875 C-5.46599028 7.47804166 -5.271228 5.44954316 -4.9375 2.3125 C-2.9375 0.3125 -2.9375 0.3125 0 0 Z " fill="#3B3C3C" transform="translate(430.9375,863.6875)"/>
<path d="M0 0 C2.30019361 3.45029042 2.43132515 4.94554358 2 9 C-1.23253796 11.15502531 -2.25150923 11.46856135 -6 11 C-7.8125 9.8125 -7.8125 9.8125 -9 8 C-9.42822025 5.14519831 -9.40659584 3.65507108 -7.875 1.1875 C-5.14012639 -0.54458662 -3.16259871 -0.40373601 0 0 Z " fill="#3B3C3C" transform="translate(319,864)"/>
<path d="M0 0 C3.0625 0.375 3.0625 0.375 5 2.0625 C6.34483625 4.98949654 6.09365662 6.36084989 5.0625 9.375 C4.4025 10.035 3.7425 10.695 3.0625 11.375 C-3.51442308 10.79807692 -3.51442308 10.79807692 -4.9375 9.375 C-5.125 5.9375 -5.125 5.9375 -4.9375 2.375 C-2.9375 0.375 -2.9375 0.375 0 0 Z " fill="#3B3B3C" transform="translate(163.9375,863.625)"/>
<path d="M0 0 C2 2 2 2 2.3125 4.9375 C2 8 2 8 0.8125 9.875 C-1.65507108 11.40659584 -3.14519831 11.42822025 -6 11 C-7.8125 9.8125 -7.8125 9.8125 -9 8 C-9.42822025 5.14519831 -9.40659584 3.65507108 -7.875 1.1875 C-5.16554166 -0.52849028 -3.13704316 -0.333728 0 0 Z " fill="#3B3C3C" transform="translate(91,864)"/>
<path d="M0 0 C2.56687367 3.8503105 1.83288724 5.58569763 1 10 C-5.36 11.32 -5.36 11.32 -8 10 C-9.58777289 6.82445422 -8.80754931 4.3544356 -8 1 C-5.21136993 -0.39431504 -3.07921132 -0.25660094 0 0 Z " fill="#3C3C3C" transform="translate(282,782)"/>
<path d="M0 0 C3.0625 0.3125 3.0625 0.3125 4.9375 1.5 C6.46909584 3.96757108 6.49072025 5.45769831 6.0625 8.3125 C5 10.1875 5 10.1875 3.0625 11.3125 C-0.5625 11.125 -0.5625 11.125 -3.9375 10.3125 C-5.31875018 7.54999964 -5.12829306 5.36518901 -4.9375 2.3125 C-2.9375 0.3125 -2.9375 0.3125 0 0 Z " fill="#3B3C3C" transform="translate(87.9375,781.6875)"/>
<path d="M0 0 C1.38125018 2.76250036 1.19079306 4.94731099 1 8 C-1 10 -1 10 -3.9375 10.3125 C-7 10 -7 10 -8.875 8.8125 C-10.40659584 6.34492892 -10.42822025 4.85480169 -10 2 C-7.59587398 -2.24257532 -4.222762 -1.01659085 0 0 Z " fill="#3C3C3C" transform="translate(92,660)"/>
<path d="M0 0 C3 0.25 3 0.25 5 2.25 C5.25 5.75 5.25 5.75 5 9.25 C3 11.25 3 11.25 0.0625 11.625 C-3 11.25 -3 11.25 -4.9375 9.5625 C-6.28233625 6.63550346 -6.03115662 5.26415011 -5 2.25 C-3 0.25 -3 0.25 0 0 Z " fill="#3C3C3D" transform="translate(50,658.75)"/>
<path d="M0 0 C1 1 1 1 1.1875 4.4375 C1 8 1 8 -1 10 C-4.13704316 10.333728 -6.16554166 10.52849028 -8.875 8.8125 C-10.42229478 6.31963619 -10.50405716 4.88032665 -10 2 C-6.88154874 -1.59821299 -4.38661903 -1.16976507 0 0 Z " fill="#3B3C3C" transform="translate(92,578)"/>
<path d="M0 0 C1.25 6.625 1.25 6.625 -1 10 C-4.16259871 10.40373601 -6.14012639 10.54458662 -8.875 8.8125 C-10.40659584 6.34492892 -10.42822025 4.85480169 -10 2 C-7.58628749 -2.25949266 -4.24852727 -0.88176981 0 0 Z " fill="#3B3C3C" transform="translate(16,496)"/>
<path d="M0 0 C3.0625 0.3125 3.0625 0.3125 4.9375 1.5 C6.48479478 3.99286381 6.56655716 5.43217335 6.0625 8.3125 C4.375 10.1875 4.375 10.1875 2.0625 11.3125 C-1.30786311 11.07175978 -2.52548021 10.72451979 -4.9375 8.3125 C-5.1875 5.3125 -5.1875 5.3125 -4.9375 2.3125 C-2.9375 0.3125 -2.9375 0.3125 0 0 Z " fill="#3B3C3C" transform="translate(542.9375,985.6875)"/>
<path d="M0 0 C2 2 2 2 2.3125 4.9375 C2 8 2 8 0.8125 9.875 C-1.65507108 11.40659584 -3.14519831 11.42822025 -6 11 C-7.8125 9.8125 -7.8125 9.8125 -9 8 C-9.42822025 5.14519831 -9.40659584 3.65507108 -7.875 1.1875 C-5.16554166 -0.52849028 -3.13704316 -0.333728 0 0 Z " fill="#3B3C3C" transform="translate(509,946)"/>
<path d="M0 0 C2.4375 0.8125 2.4375 0.8125 4.4375 2.8125 C4.6875 6.3125 4.6875 6.3125 4.4375 9.8125 C3.7775 10.4725 3.1175 11.1325 2.4375 11.8125 C-1.125 11.5625 -1.125 11.5625 -4.5625 10.8125 C-5.96185013 8.01379973 -5.81515405 5.90751208 -5.5625 2.8125 C-3.8855372 0.07640281 -3.22049925 -0.23564629 0 0 Z " fill="#3B3C3C" transform="translate(164.5625,904.1875)"/>
<path d="M0 0 C1.8125 1.125 1.8125 1.125 3 3 C3.375 6.0625 3.375 6.0625 3 9 C-0.45029042 11.30019361 -1.94554358 11.43132515 -6 11 C-8.15502531 7.76746204 -8.46856135 6.74849077 -8 3 C-5.85607122 -0.27231235 -3.76836426 -0.56525464 0 0 Z " fill="#3B3C3C" transform="translate(14,700)"/>
<path d="M0 0 C3.5 0.1875 3.5 0.1875 7 1 C9 4 9 4 8.75 6.5625 C8 9 8 9 6 11 C3 11.25 3 11.25 0 11 C-2 9 -2 9 -2.25 5.5 C-2 2 -2 2 0 0 Z " fill="#3C3C3D" transform="translate(161,659)"/>
<path d="M0 0 C1.875 1.0625 1.875 1.0625 3 3 C2.55555556 9.44444444 2.55555556 9.44444444 1 11 C-4.27565392 11.45875252 -4.27565392 11.45875252 -6.875 9.8125 C-8.40659584 7.34492892 -8.42822025 5.85480169 -8 3 C-5.85607122 -0.27231235 -3.76836426 -0.56525464 0 0 Z " fill="#3C3C3C" transform="translate(14,659)"/>
<path d="M0 0 C2.15502531 3.23253796 2.46856135 4.25150923 2 8 C0.875 9.875 0.875 9.875 -1 11 C-4.64734979 10.77669287 -6.38372835 10.61627165 -9 8 C-8.75 4.4375 -8.75 4.4375 -8 1 C-5.21136993 -0.39431504 -3.07921132 -0.25660094 0 0 Z " fill="#3B3C3C" transform="translate(434,986)"/>
<path d="M0 0 C1.8125 1.1875 1.8125 1.1875 3 3 C3.4334014 5.88934264 3.42525784 7.35092224 1.8125 9.8125 C-0.64907776 11.42525784 -2.11065736 11.4334014 -5 11 C-6.8125 9.875 -6.8125 9.875 -8 8 C-8.375 4.9375 -8.375 4.9375 -8 2 C-4.76746204 -0.15502531 -3.74849077 -0.46856135 0 0 Z " fill="#3B3C3C" transform="translate(280,986)"/>
<path d="M0 0 C1.8125 1.1875 1.8125 1.1875 3 3 C3.42674516 5.84496772 3.36066991 7.36352369 1.9375 9.875 C-1.11569315 11.64782183 -3.66411708 10.69235306 -7 10 C-8.33359073 3.57451737 -8.33359073 3.57451737 -6.875 1.0625 C-4.36352369 -0.36066991 -2.84496772 -0.42674516 0 0 Z " fill="#3B3C3C" transform="translate(14,946)"/>
<path d="M0 0 C2.4375 0.75 2.4375 0.75 4.4375 2.75 C4.6875 5.75 4.6875 5.75 4.4375 8.75 C2.4375 10.75 2.4375 10.75 -0.5 11.0625 C-3.5625 10.75 -3.5625 10.75 -5.5 9.625 C-6.5625 7.75 -6.5625 7.75 -6.4375 4.6875 C-5.31039351 0.90364248 -4.04478927 -0.39461359 0 0 Z " fill="#3B3C3C" transform="translate(316.5625,822.25)"/>
<path d="M0 0 C2.9375 0.875 2.9375 0.875 4.9375 3.875 C4.6875 7 4.6875 7 3.9375 9.875 C1.17499964 11.25625018 -1.00981099 11.06579306 -4.0625 10.875 C-6.0625 8.875 -6.0625 8.875 -6.375 5.9375 C-6.0625 2.875 -6.0625 2.875 -4.9375 0.9375 C-3.0625 -0.125 -3.0625 -0.125 0 0 Z " fill="#3B3C3C" transform="translate(394.0625,822.125)"/>
<path d="M0 0 C1.423125 0.37125 1.423125 0.37125 2.875 0.75 C4.25625018 3.51250036 4.06579306 5.69731099 3.875 8.75 C1.875 10.75 1.875 10.75 -1.0625 11.0625 C-4.125 10.75 -4.125 10.75 -6.0625 9.625 C-7.125 7.75 -7.125 7.75 -7 4.6875 C-5.75587303 0.51078801 -4.31838089 -0.34547047 0 0 Z " fill="#3B3C3C" transform="translate(127.125,822.25)"/>
<path d="M0 0 C2.15502531 3.23253796 2.46856135 4.25150923 2 8 C0.8125 9.8125 0.8125 9.8125 -1 11 C-3.88934264 11.4334014 -5.35092224 11.42525784 -7.8125 9.8125 C-9.42525784 7.35092224 -9.4334014 5.88934264 -9 3 C-6.74087166 -0.63970677 -4.02464148 -0.51378402 0 0 Z " fill="#3B3C3C" transform="translate(15,782)"/>
<path d="M0 0 C1.8125 1.1875 1.8125 1.1875 3 3 C3.4334014 5.88934264 3.42525784 7.35092224 1.8125 9.8125 C-0.64907776 11.42525784 -2.11065736 11.4334014 -5 11 C-6.875 9.9375 -6.875 9.9375 -8 8 C-7.8125 4.375 -7.8125 4.375 -7 1 C-4.45132831 -0.27433584 -2.82594567 -0.27570202 0 0 Z " fill="#3B3C3C" transform="translate(472,986)"/>
<path d="M0 0 C3 0.25 3 0.25 5 2.25 C5.33302312 5.3804173 5.47671956 7.42898298 3.875 10.1875 C2 11.25 2 11.25 -1.0625 11.125 C-4 10.25 -4 10.25 -6 7.25 C-5.5601518 2.74155593 -4.87125629 0.40593802 0 0 Z " fill="#3B3C3C" transform="translate(203,985.75)"/>
<path d="M0 0 C1 1 1 1 1.25 4.375 C1 8 1 8 -0.1875 10 C-2 11 -2 11 -4.5625 10.8125 C-7 10 -7 10 -9 8 C-9.33302312 4.8695827 -9.47671956 2.82101702 -7.875 0.0625 C-5.04805609 -1.53943488 -3.05073223 -0.79584319 0 0 Z " fill="#3B3B3C" transform="translate(168,823)"/>
<path d="M0 0 C2.4375 0.75 2.4375 0.75 4.4375 2.75 C4.6875 5.75 4.6875 5.75 4.4375 8.75 C2.4375 10.75 2.4375 10.75 -0.5 11.0625 C-3.5625 10.75 -3.5625 10.75 -5.5 9.625 C-6.5625 7.75 -6.5625 7.75 -6.4375 4.6875 C-5.31039351 0.90364248 -4.04478927 -0.39461359 0 0 Z " fill="#3B3C3C" transform="translate(355.5625,822.25)"/>
<path d="M0 0 C3.625 0.375 3.625 0.375 7 1 C8.33359073 7.42548263 8.33359073 7.42548263 6.875 9.9375 C4.33639987 11.37604008 2.87213496 11.50262362 0 11 C-1.875 9.3125 -1.875 9.3125 -3 7 C-2.75925978 3.62963689 -2.41201979 2.41201979 0 0 Z " fill="#3B3C3C" transform="translate(313,946)"/>
<path d="M0 0 C2.30019361 3.45029042 2.43132515 4.94554358 2 9 C-1 11 -1 11 -4.0625 10.8125 C-7 10 -7 10 -9 7 C-8.8125 4.4375 -8.8125 4.4375 -8 2 C-4.79191085 -0.1387261 -3.72301503 -0.47730962 0 0 Z " fill="#3B3C3C" transform="translate(206,946)"/>
<path d="M0 0 C2 2 2 2 2.25 5.5 C2 9 2 9 0 11 C-3 11.25 -3 11.25 -6 11 C-8 9 -8 9 -8.3125 5.5 C-8.209375 4.345 -8.10625 3.19 -8 2 C-4.77626323 -0.14915785 -3.73296326 -0.38286803 0 0 Z " fill="#3C3C3C" transform="translate(129,577)"/>
<path d="M0 0 C3.125 0.3125 3.125 0.3125 5.0625 2 C6.40733625 4.92699654 6.15615662 6.29834989 5.125 9.3125 C3.125 11.3125 3.125 11.3125 0.6875 11.6875 C-1.875 11.3125 -1.875 11.3125 -3.75 9.6875 C-5.24936896 6.52216552 -4.76264916 4.64118435 -3.875 1.3125 C-2.875 0.3125 -2.875 0.3125 0 0 Z " fill="#3B3B3B" transform="translate(542.875,236.6875)"/>
<path d="M0 0 C3 0.25 3 0.25 5 2.25 C5.25 5.75 5.25 5.75 5 9.25 C3 11.25 3 11.25 0.5625 11.5 C-2 11.25 -2 11.25 -5 9.25 C-5.3125 5.75 -5.3125 5.75 -5 2.25 C-3 0.25 -3 0.25 0 0 Z " fill="#3C3C3C" transform="translate(393,945.75)"/>
<path d="M0 0 C2.4375 0.8125 2.4375 0.8125 4.4375 2.8125 C4.6875 5.8125 4.6875 5.8125 4.4375 8.8125 C2.4375 10.8125 2.4375 10.8125 -0.5 11.1875 C-3.5625 10.8125 -3.5625 10.8125 -5.5 9.0625 C-6.5625 6.8125 -6.5625 6.8125 -6.4375 4.75 C-4.90198494 1.34993095 -3.91952037 -0.28679417 0 0 Z " fill="#3C3C3D" transform="translate(88.5625,822.1875)"/>
<path d="M0 0 C2 2 2 2 2.125 5.625 C2.08375 6.73875 2.0425 7.8525 2 9 C-0.6875 10.1875 -0.6875 10.1875 -4 11 C-6.875 9.625 -6.875 9.625 -9 8 C-8.64005447 5.3364031 -8.28838998 3.41816548 -6.75 1.1875 C-4.36656913 -0.42982809 -2.82124201 -0.36169769 0 0 Z " fill="#3B3C3C" transform="translate(515,538)"/>
<path d="M0 0 C3.625 0.375 3.625 0.375 7 1 C8.32561852 7.38707103 8.32561852 7.38707103 6.9375 10 C3.99948754 11.51639353 2.09843192 10.92293717 -1 10 C-3 7 -3 7 -2.75 4.4375 C-2 2 -2 2 0 0 Z " fill="#3B3C3C" transform="translate(313,986)"/>
<path d="M0 0 C3.0625 0.3125 3.0625 0.3125 5 1.5 C6.0625 3.3125 6.0625 3.3125 5.9375 5.8125 C4.99624198 8.50180863 4.46223442 9.76981359 2.0625 11.3125 C-0.5 11.1875 -0.5 11.1875 -2.9375 10.3125 C-5.08665785 7.08876323 -5.32036803 6.04546326 -4.9375 2.3125 C-2.9375 0.3125 -2.9375 0.3125 0 0 Z " fill="#3B3C3C" transform="translate(163.9375,945.6875)"/>
<path d="M0 0 C1.875 1.6875 1.875 1.6875 3 4 C2.75925978 7.37036311 2.41201979 8.58798021 0 11 C-2.84602594 11.36487512 -4.3864306 11.40199375 -6.8125 9.8125 C-8.42525784 7.35092224 -8.4334014 5.88934264 -8 3 C-5.86922119 -0.25224135 -3.7535559 -0.65687228 0 0 Z " fill="#3C3D3D" transform="translate(396,864)"/>
<path d="M0 0 C2 2 2 2 2.3125 4.4375 C2 7 2 7 0.875 8.875 C-1 10 -1 10 -4.0625 9.8125 C-7 9 -7 9 -9 7 C-9.375 4.5625 -9.375 4.5625 -9 2 C-6.07557433 -1.24936186 -4.04996841 -1.38551551 0 0 Z " fill="#3A3A3A" transform="translate(342,357)"/>
<path d="M0 0 C1.875 1.6875 1.875 1.6875 3 4 C2.875 6.625 2.875 6.625 2 9 C-1 11 -1 11 -3.5625 10.75 C-6 10 -6 10 -8 8 C-7.75 4.4375 -7.75 4.4375 -7 1 C-4.4254716 -0.2872642 -2.85291355 -0.34791629 0 0 Z " fill="#3B3C3C" transform="translate(396,986)"/>
<path d="M0 0 C2.9375 0.4375 2.9375 0.4375 4.9375 2.4375 C5.25 5.9375 5.25 5.9375 4.9375 9.4375 C1.9375 11.4375 1.9375 11.4375 -0.5625 11.375 C-3.84475076 10.14415597 -4.56070102 8.52014 -6.0625 5.4375 C-3.86402672 0.55200382 -3.86402672 0.55200382 0 0 Z " fill="#3B3C3C" transform="translate(278.0625,945.5625)"/>
<path d="M0 0 C2 2 2 2 2.1875 5.5 C2 9 2 9 1 11 C-4.42857143 11.36190476 -4.42857143 11.36190476 -6.875 9.8125 C-8.40659584 7.34492892 -8.42822025 5.85480169 -8 3 C-5.84871852 -0.2835349 -3.77529378 -0.48401202 0 0 Z " fill="#3B3C3C" transform="translate(167,577)"/>
<path d="M0 0 C1.875 1.125 1.875 1.125 3 3 C2.875 6.0625 2.875 6.0625 2 9 C-1 11 -1 11 -3.5625 10.75 C-6 10 -6 10 -8 8 C-8.36487512 5.15397406 -8.40199375 3.6135694 -6.8125 1.1875 C-4.35092224 -0.42525784 -2.88934264 -0.4334014 0 0 Z " fill="#3B3B3C" transform="translate(574,538)"/>
<path d="M0 0 C2 2 2 2 2.23046875 3.91015625 C2.11111111 9.88888889 2.11111111 9.88888889 1 11 C-4.27565392 11.45875252 -4.27565392 11.45875252 -6.875 9.8125 C-8.40659584 7.34492892 -8.42822025 5.85480169 -8 3 C-5.84871852 -0.2835349 -3.77529378 -0.48401202 0 0 Z " fill="#3B3B3B" transform="translate(633,412)"/>
<path d="M0 0 C1.875 1.75 1.875 1.75 3 4 C2.91417696 6.83216045 2.21713343 7.7751118 0.25 9.8125 C-2 11 -2 11 -4.6875 10.8125 C-7 10 -7 10 -8 8 C-8.25 5 -8.25 5 -8 2 C-4.77856724 -0.14762184 -3.7404533 -0.561068 0 0 Z " fill="#3A3B3B" transform="translate(603,237)"/>
<path d="M0 0 C1.875 1.1875 1.875 1.1875 3 3 C2.8579936 5.84012798 2.32548508 7.51177239 0.75 9.875 C-1 11 -1 11 -3.5625 10.875 C-6 10 -6 10 -8 7 C-7.75 3.875 -7.75 3.875 -7 1 C-4.45132831 -0.27433584 -2.82594567 -0.27570202 0 0 Z " fill="#3A3B3B" transform="translate(491,237)"/>
<path d="M0 0 C3 0.25 3 0.25 5 2.25 C5.25 5.25 5.25 5.25 5 8.25 C3 10.25 3 10.25 0.0625 10.5625 C-3 10.25 -3 10.25 -4.9375 9.0625 C-6 7.25 -6 7.25 -5.8125 4.6875 C-4.61374094 1.09122283 -3.8124642 0.31770535 0 0 Z " fill="#3C3C3C" transform="translate(203,822.75)"/>
<path d="M0 0 C3.625 0.375 3.625 0.375 7 1 C7.625 3.8125 7.625 3.8125 8 7 C7.01 8.485 7.01 8.485 6 10 C2.5 10.3125 2.5 10.3125 -1 10 C-1.66 9.34 -2.32 8.68 -3 8 C-2.54545455 2.54545455 -2.54545455 2.54545455 0 0 Z " fill="#3B3B3B" transform="translate(393,538)"/>
<path d="M0 0 C2.875 0.75 2.875 0.75 3.875 1.75 C4.0625 5.1875 4.0625 5.1875 3.875 8.75 C1.875 10.75 1.875 10.75 -0.5625 11.0625 C-3.125 10.75 -3.125 10.75 -4.9375 9.5625 C-6.55025784 7.10092224 -6.5584014 5.63934264 -6.125 2.75 C-4.319333 -0.259445 -3.53577529 -0.28286202 0 0 Z " fill="#3A3B3B" transform="translate(571.125,237.25)"/>
<path d="M0 0 C2.5 0.25 2.5 0.25 4.5 2.25 C4.8125 5.75 4.8125 5.75 4.5 9.25 C1.5 11.25 1.5 11.25 -1.0625 11.0625 C-3.5 10.25 -3.5 10.25 -5.5 7.25 C-5.09989413 3.14891484 -4.53497895 0.4534979 0 0 Z " fill="#3A3B3B" transform="translate(338.5,505.75)"/>
<path d="M0 0 C3 0.25 3 0.25 5 2.25 C4.42307692 8.82692308 4.42307692 8.82692308 3 10.25 C0.125 10.5625 0.125 10.5625 -3 10.25 C-4.9375 8.5 -4.9375 8.5 -6 6.25 C-5.6357391 2.12170975 -4.23779576 0.35314965 0 0 Z " fill="#3A3B3B" transform="translate(339,412.75)"/>
<path d="M0 0 C2.4375 0.8125 2.4375 0.8125 4.4375 3.8125 C4.20801008 6.2603925 3.58167022 7.60345318 2.1875 9.625 C0.4375 10.8125 0.4375 10.8125 -2.125 10.6875 C-4.5625 9.8125 -4.5625 9.8125 -6.5625 6.8125 C-6.375 4.25 -6.375 4.25 -5.5625 1.8125 C-2.5625 -0.1875 -2.5625 -0.1875 0 0 Z " fill="#393A3A" transform="translate(339.5625,474.1875)"/>
<path d="M0 0 C2.4375 0.75 2.4375 0.75 4.4375 2.75 C4.6875 5.25 4.6875 5.25 4.4375 7.75 C2.4375 9.75 2.4375 9.75 -1.0625 10.0625 C-2.795 9.9078125 -2.795 9.9078125 -4.5625 9.75 C-6.5625 6.75 -6.5625 6.75 -6.375 4.1875 C-5.20563183 0.67939548 -3.6900641 -0.36000625 0 0 Z " fill="#3B3B3C" transform="translate(431.5625,237.25)"/>
<path d="M0 0 C3 0.25 3 0.25 5 2.25 C5.25 5.25 5.25 5.25 5 8.25 C3 10.25 3 10.25 0 10.5 C-3 10.25 -3 10.25 -5 8.25 C-5.25 5.25 -5.25 5.25 -5 2.25 C-3 0.25 -3 0.25 0 0 Z " fill="#3C3D3D" transform="translate(240,945.75)"/>
<path d="M0 0 C2.4375 0.75 2.4375 0.75 4.4375 2.75 C4.80546448 5.62012296 4.81259409 7.15774618 3.25 9.625 C1.4375 10.75 1.4375 10.75 -1.125 10.5625 C-3.5625 9.75 -3.5625 9.75 -5.5625 7.75 C-5.875 4.75 -5.875 4.75 -5.5625 1.75 C-2.5625 -0.25 -2.5625 -0.25 0 0 Z " fill="#3B3C3C" transform="translate(519.5625,237.25)"/>
<path d="M0 0 C2.5625 0.3125 2.5625 0.3125 4.4375 1.5 C5.5625 3.3125 5.5625 3.3125 5.3125 5.875 C4.5625 8.3125 4.5625 8.3125 3.5625 10.3125 C-1.84889241 10.67325949 -1.84889241 10.67325949 -4.375 9.125 C-5.4375 7.3125 -5.4375 7.3125 -5.25 4.75 C-4.18108204 1.54324612 -3.41484064 0.43780008 0 0 Z " fill="#3B3B3B" transform="translate(454.4375,537.6875)"/>
<path d="M0 0 C2.5625 0.375 2.5625 0.375 4.4375 2.0625 C5.86374388 4.99422354 5.60480389 6.32826554 4.5625 9.375 C3.9025 10.035 3.2425 10.695 2.5625 11.375 C-0.73464793 11.04528521 -2.0601839 10.7523161 -4.4375 8.375 C-4.6875 5.375 -4.6875 5.375 -4.4375 2.375 C-2.4375 0.375 -2.4375 0.375 0 0 Z " fill="#3A3B3B" transform="translate(338.4375,537.625)"/>
<path d="M0 0 C0.99 0.103125 1.98 0.20625 3 0.3125 C5.14915785 3.53623677 5.38286803 4.57953674 5 8.3125 C3 10.3125 3 10.3125 0 10.5625 C-3 10.3125 -3 10.3125 -5 8.3125 C-5.25 5.3125 -5.25 5.3125 -5 2.3125 C-3 0.3125 -3 0.3125 0 0 Z " fill="#3B3C3C" transform="translate(541,537.6875)"/>
<path d="M0 0 C2.5 0.25 2.5 0.25 4.5 2.25 C4.75 5.75 4.75 5.75 4.5 9.25 C2.5 11.25 2.5 11.25 0 11.5 C-2.5 11.25 -2.5 11.25 -4.5 9.25 C-4.75 5.75 -4.75 5.75 -4.5 2.25 C-2.5 0.25 -2.5 0.25 0 0 Z " fill="#3B3C3C" transform="translate(630.5,505.75)"/>
<path d="M0 0 C2.5 0.25 2.5 0.25 4.5 2.25 C4.75 5.75 4.75 5.75 4.5 9.25 C2.5 11.25 2.5 11.25 0 11.5 C-2.5 11.25 -2.5 11.25 -4.5 9.25 C-4.75 5.75 -4.75 5.75 -4.5 2.25 C-2.5 0.25 -2.5 0.25 0 0 Z " fill="#3B3C3C" transform="translate(630.5,324.75)"/>
<path d="M0 0 C2.375 0.75 2.375 0.75 3.375 1.75 C3.5625 5.1875 3.5625 5.1875 3.375 8.75 C1.375 10.75 1.375 10.75 -1.0625 11.125 C-3.625 10.75 -3.625 10.75 -5.5 9 C-6.625 6.75 -6.625 6.75 -6.5 4.6875 C-4.94269572 1.23918339 -3.97150729 -0.37823879 0 0 Z " fill="#3B3B3B" transform="translate(339.625,383.25)"/>
<path d="M0 0 C5.56818182 0.56818182 5.56818182 0.56818182 7 2 C7.125 5.5 7.125 5.5 7 9 C6 10 6 10 2.5625 10.25 C1.386875 10.1675 0.21125 10.085 -1 10 C-3 7 -3 7 -2.75 4.4375 C-2 2 -2 2 0 0 Z " fill="#3A3B3B" transform="translate(628,538)"/>
<path d="M0 0 C3.625 0.375 3.625 0.375 7 1 C7.625 3.8125 7.625 3.8125 8 7 C7.01 8.485 7.01 8.485 6 10 C3 10.3125 3 10.3125 0 10 C-2 8 -2 8 -2.25 5 C-2 2 -2 2 0 0 Z " fill="#3A3B3C" transform="translate(597,538)"/>
<path d="M0 0 C0.94875 0.04125 1.8975 0.0825 2.875 0.125 C4.25625018 2.88750036 4.06579306 5.07231099 3.875 8.125 C1.875 10.125 1.875 10.125 -1.125 10.4375 C-2.115 10.334375 -3.105 10.23125 -4.125 10.125 C-6.125 7.125 -6.125 7.125 -5.875 4.5625 C-4.73051297 0.84291716 -3.91822743 0.1567291 0 0 Z " fill="#3A3B3B" transform="translate(631.125,297.875)"/>
<path d="M0 0 C2.875 0.75 2.875 0.75 3.875 1.75 C4.0625 4.6875 4.0625 4.6875 3.875 7.75 C1.875 9.75 1.875 9.75 -1.125 10 C-4.125 9.75 -4.125 9.75 -6.125 7.75 C-6.4883156 4.91613833 -6.4818671 3.34477849 -5 0.875 C-3.125 -0.25 -3.125 -0.25 0 0 Z " fill="#3A3B3B" transform="translate(367.125,538.25)"/>
<path d="M0 0 C2.5 0.25 2.5 0.25 4.5 2.25 C4.75 5.25 4.75 5.25 4.5 8.25 C2.5 10.25 2.5 10.25 -0.5 10.5625 C-1.49 10.459375 -2.48 10.35625 -3.5 10.25 C-5.5 7.25 -5.5 7.25 -5.25 4.6875 C-4.24098289 1.40819438 -3.4742892 0.34742892 0 0 Z " fill="#3B3C3C" transform="translate(630.5,444.75)"/>
<path d="M0 0 C3.125 0.375 3.125 0.375 6 1 C7.33078101 7.41194487 7.33078101 7.41194487 5.875 10 C4 11 4 11 1.4375 10.9375 C-1 10 -1 10 -2.375 8.1875 C-3.1029578 5.63964771 -2.97753707 4.44384268 -2 2 C-1.34 1.34 -0.68 0.68 0 0 Z " fill="#3B3C3C" transform="translate(456,237)"/>
<path d="M0 0 C2.5 0.25 2.5 0.25 4.5 2.25 C4.75 5.25 4.75 5.25 4.5 8.25 C2.5 10.25 2.5 10.25 -0.5 10.5625 C-1.49 10.459375 -2.48 10.35625 -3.5 10.25 C-5.5 7.25 -5.5 7.25 -5.25 4.6875 C-4.24098289 1.40819438 -3.4742892 0.34742892 0 0 Z " fill="#3B3C3C" transform="translate(399.5,236.75)"/>
<path d="M0 0 C2.9375 0.1875 2.9375 0.1875 3.9375 1.1875 C4.0703125 3 4.0703125 3 4.0625 5.1875 C4.06507813 5.909375 4.06765625 6.63125 4.0703125 7.375 C3.9375 9.1875 3.9375 9.1875 2.9375 10.1875 C-2.59191176 10.42279412 -2.59191176 10.42279412 -5.0625 9.1875 C-5.1875 5.8125 -5.1875 5.8125 -5.0625 2.1875 C-3.0625 0.1875 -3.0625 0.1875 0 0 Z " fill="#3B3C3C" transform="translate(631.0625,383.8125)"/>
<path d="M0 0 C2 2 2 2 2.125 5.625 C2.08375 6.73875 2.0425 7.8525 2 9 C-0.25 10.1875 -0.25 10.1875 -3 11 C-5.3125 10.0625 -5.3125 10.0625 -7 8 C-7.25 4.3125 -7.25 4.3125 -7 1 C-4.48718205 -0.25640898 -2.78302919 -0.20872719 0 0 Z " fill="#3B3C3C" transform="translate(633,237)"/>
<path d="M0 0 C3.625 0.375 3.625 0.375 7 1 C7.3633218 7.41868512 7.3633218 7.41868512 5.75 10 C4 11 4 11 1.9375 10.8125 C0 10 0 10 -2 8 C-2.25 5 -2.25 5 -2 2 C-1.34 1.34 -0.68 0.68 0 0 Z " fill="#3B3C3C" transform="translate(336,237)"/>
<path d="M0 0 C2.5 0.25 2.5 0.25 4.5 2.25 C4.75 5.25 4.75 5.25 4.5 8.25 C2.5 10.25 2.5 10.25 0.0625 10.5625 C-2.5 10.25 -2.5 10.25 -4.375 9.0625 C-5.5 7.25 -5.5 7.25 -5.3125 4.6875 C-4.22827241 1.43481722 -3.47807945 0.34780795 0 0 Z " fill="#3B3C3C" transform="translate(481.5,537.75)"/>
<path d="M0 0 C2.4375 0.8125 2.4375 0.8125 4.4375 2.8125 C4.6875 5.3125 4.6875 5.3125 4.4375 7.8125 C2.4375 9.8125 2.4375 9.8125 -0.5625 10.0625 C-3.5625 9.8125 -3.5625 9.8125 -5.5625 7.8125 C-5.93046448 4.94237704 -5.93759409 3.40475382 -4.375 0.9375 C-2.5625 -0.1875 -2.5625 -0.1875 0 0 Z " fill="#3A3B3B" transform="translate(338.5625,266.1875)"/>
<path d="M0 0 C3.29714793 0.32971479 4.6226839 0.6226839 7 3 C7.25 5.5 7.25 5.5 7 8 C5 10 5 10 2 10.3125 C1.01 10.209375 0.02 10.10625 -1 10 C-3 7 -3 7 -2.75 4.4375 C-2 2 -2 2 0 0 Z " fill="#3B3C3C" transform="translate(367,237)"/>
<path d="M0 0 C3.625 0.375 3.625 0.375 7 1 C7.09765625 7.15234375 7.09765625 7.15234375 7 9 C6 10 6 10 3.0625 10.25 C2.051875 10.1675 1.04125 10.085 0 10 C-2.14915785 6.77626323 -2.38286803 5.73296326 -2 2 C-1.34 1.34 -0.68 0.68 0 0 Z " fill="#3B3C3C" transform="translate(423,538)"/>
<path d="M0 0 C0.763125 0.20625 1.52625 0.4125 2.3125 0.625 C2.9375 4 2.9375 4 3.3125 7.625 C1.3125 9.625 1.3125 9.625 -1.6875 9.9375 C-2.6775 9.834375 -3.6675 9.73125 -4.6875 9.625 C-6.6875 6.625 -6.6875 6.625 -6.5 4.0625 C-5.2959794 0.45043821 -3.76396151 -0.52520393 0 0 Z " fill="#3A3B3B" transform="translate(631.6875,266.375)"/>
<path d="M0 0 C3.625 0.375 3.625 0.375 7 1 C7.1875 4.375 7.1875 4.375 7 8 C4 10 4 10 0.8125 9.625 C-0.5796875 9.315625 -0.5796875 9.315625 -2 9 C-2.125 5.625 -2.125 5.625 -2 2 C-1.34 1.34 -0.68 0.68 0 0 Z " fill="#3B3B3B" transform="translate(336,297)"/>
<path d="M0 0 C2.5 0.25 2.5 0.25 4.5 2.25 C4.75 5.25 4.75 5.25 4.5 8.25 C2.5 10.25 2.5 10.25 0 10.5 C-2.5 10.25 -2.5 10.25 -4.5 8.25 C-4.75 5.25 -4.75 5.25 -4.5 2.25 C-2.5 0.25 -2.5 0.25 0 0 Z " fill="#3C3C3C" transform="translate(338.5,324.75)"/>
<path d="M0 0 C1.2375 0.1546875 1.2375 0.1546875 2.5 0.3125 C4.64915785 3.53623677 4.88286803 4.57953674 4.5 8.3125 C2.5 10.3125 2.5 10.3125 0 10.5625 C-2.5 10.3125 -2.5 10.3125 -4.5 8.3125 C-4.75 5.3125 -4.75 5.3125 -4.5 2.3125 C-2.5 0.3125 -2.5 0.3125 0 0 Z " fill="#3B3C3C" transform="translate(338.5,444.6875)"/>
<path d="M0 0 C2.5 0.25 2.5 0.25 4.5 2.25 C4.75 5.25 4.75 5.25 4.5 8.25 C2.5 10.25 2.5 10.25 0 10.5625 C-1.2375 10.4078125 -1.2375 10.4078125 -2.5 10.25 C-4.64915785 7.02626323 -4.88286803 5.98296326 -4.5 2.25 C-2.5 0.25 -2.5 0.25 0 0 Z " fill="#3B3C3C" transform="translate(630.5,352.75)"/>
<path d="M0 0 C2.5 0.25 2.5 0.25 4.5 2.25 C4.75 5.25 4.75 5.25 4.5 8.25 C3.84 8.91 3.18 9.57 2.5 10.25 C-0.625 9.875 -0.625 9.875 -3.5 9.25 C-4.125 5.875 -4.125 5.875 -4.5 2.25 C-2.5 0.25 -2.5 0.25 0 0 Z " fill="#3B3C3C" transform="translate(630.5,474.75)"/>
</svg>
