<?xml version="1.0" encoding="UTF-8"?>
<svg version="1.1" xmlns="http://www.w3.org/2000/svg" width="1024" height="1024">
<path d="M0 0 C337.92 0 675.84 0 1024 0 C1024 337.92 1024 675.84 1024 1024 C686.08 1024 348.16 1024 0 1024 C0 686.08 0 348.16 0 0 Z " fill="#190F06" transform="translate(0,0)"/>
<path d="M0 0 C6.89078355 0.60011947 13.32187108 1.90801713 20 3.6875 C21.51339966 4.08678711 21.51339966 4.08678711 23.05737305 4.49414062 C30.47375706 6.49332445 37.69012538 8.84031733 44.890625 11.50390625 C48.48859517 12.83453189 52.12049581 14.02680743 55.77246094 15.19970703 C65.14341946 18.21879409 74.04967477 21.91332388 83 26 C84.49933145 26.64738388 85.99921395 27.2934954 87.5 27.9375 C94.45129578 31.04028145 101.22373875 34.53602236 108 38 C108.90363281 38.46019531 109.80726563 38.92039062 110.73828125 39.39453125 C123.75507463 46.26623557 136.61471834 54.13526678 148.359375 63.01953125 C150.47103632 64.60327724 152.59968586 66.1297208 154.765625 67.63671875 C155.41539307 68.09087158 156.06516113 68.54502441 156.73461914 69.01293945 C158.01437712 69.90552225 159.29732022 70.79355949 160.58374023 71.67651367 C162.09160558 72.73512863 163.5510913 73.862025 165 75 C165 75.66 165 76.32 165 77 C165.84304687 77.36544922 165.84304687 77.36544922 166.703125 77.73828125 C169.44019785 79.24180936 171.45795941 81.06699748 173.75 83.1875 C176.90536637 86.08262997 180.07110889 88.95145549 183.3125 91.75 C186.33963896 94.396444 189.28519822 97.03068555 192 100 C192 100.66 192 101.32 192 102 C192.66 102 193.32 102 194 102 C194 102.66 194 103.32 194 104 C194.54140625 104.20625 195.0828125 104.4125 195.640625 104.625 C198.92180779 106.53721248 201.23648395 109.20459057 203.75 112 C204.28367188 112.58740967 204.81734375 113.17481934 205.3671875 113.7800293 C209.79490274 118.69236011 213.98523962 123.7436378 218 129 C218.6487207 129.83990479 218.6487207 129.83990479 219.31054688 130.69677734 C248.91343033 169.0810374 270.78008614 212.0010235 283 259 C283.22139648 259.82999512 283.44279297 260.65999023 283.67089844 261.51513672 C294.64777692 302.98065786 296.43153775 346.46598816 292 389 C291.8870459 390.09779785 291.7740918 391.1955957 291.65771484 392.32666016 C287.73554977 428.34022143 277.62474586 465.87853611 260.17675781 497.80517578 C258.69654413 500.56598927 257.28341436 503.35817781 255.8671875 506.15234375 C254.72438091 508.3934447 253.58115021 510.63432944 252.4375 512.875 C251.90713135 513.92228271 251.3767627 514.96956543 250.83032227 516.04858398 C247.78826875 521.94095116 244.49032474 527.39723001 240.60473633 532.77099609 C238.47482838 535.72947161 236.55904613 538.78497227 234.625 541.875 C227.33369527 553.33700604 218.86530944 563.7384721 210 574 C209.38382813 574.71800781 208.76765625 575.43601562 208.1328125 576.17578125 C206.43897378 578.13301594 204.72304631 580.06843216 203 582 C202.23816406 582.86625 201.47632813 583.7325 200.69140625 584.625 C188.57541664 598.16322316 175.09732194 610.91183601 160.5 621.75 C159.81204346 622.26167725 159.12408691 622.77335449 158.4152832 623.30053711 C129.75163912 644.48926115 98.49311716 661.70658455 65 674 C64.07848145 674.34724121 63.15696289 674.69448242 62.20751953 675.05224609 C48.77733108 680.07088284 35.0729357 683.5884581 21.125 686.8125 C20.30932556 687.00167999 19.49365112 687.19085999 18.65325928 687.38577271 C3.0415095 690.97954615 -12.559931 694.30447724 -28.625 694.6875 C-30.14867187 694.73874023 -30.14867187 694.73874023 -31.703125 694.79101562 C-34.13530568 694.87132348 -36.56722396 694.94111628 -39 695 C-39 694.34 -39 693.68 -39 693 C-38.36723145 692.95512451 -37.73446289 692.91024902 -37.08251953 692.86401367 C-23.58052945 691.88353818 -10.27823529 690.67249372 3 688 C4.46614746 687.70633545 4.46614746 687.70633545 5.96191406 687.40673828 C29.82297648 682.54210875 54.84488763 676.83243801 76.96875 666.40625 C79.20853876 665.36717274 81.44740355 664.37111058 83.71875 663.40625 C91.8762107 659.93592693 99.7237465 656.14217116 107.5 651.88671875 C110.5491154 650.24305498 113.62068452 648.73207858 116.75 647.25 C130.02166545 640.66797132 142.35311665 632.10516019 154 623 C155.0870656 622.17773243 156.17566565 621.35749036 157.265625 620.5390625 C164.15531023 615.34600858 170.65239355 609.84676614 177 604 C178.41193907 602.7446624 179.82832534 601.49430126 181.25 600.25 C181.89324219 599.68667969 182.53648437 599.12335937 183.19921875 598.54296875 C184.78999235 597.17994148 186.42343723 595.86706017 188.0625 594.5625 C191.0394037 591.96562656 193.5241447 589.2365986 196.08203125 586.23828125 C198.85777421 582.99897226 201.73075356 579.84961548 204.59375 576.6875 C225.75199125 553.05621757 243.54335352 526.50329417 257.13671875 497.81201172 C257.96894396 496.06518607 258.82774482 494.33109782 259.6875 492.59765625 C263.64219043 484.45941599 266.98951659 476.12688555 270.25 467.6875 C270.67458496 466.59002441 271.09916992 465.49254883 271.53662109 464.36181641 C273.97124837 457.97297527 276.11923051 451.57153358 278 445 C278.32742188 443.94554687 278.65484375 442.89109375 278.9921875 441.8046875 C283.8622045 425.64312667 287.32222756 408.79718808 289 392 C289.08878418 391.18740723 289.17756836 390.37481445 289.26904297 389.53759766 C292.39256721 360.35134497 291.99367625 331.06390429 288 302 C287.70664744 299.69405921 287.41368223 297.38806911 287.12109375 295.08203125 C285.29876162 281.29979361 282.6049495 267.99546363 278.75585938 254.63769531 C278.04527855 252.15800693 277.37043052 249.67130364 276.703125 247.1796875 C259.9728411 186.37081615 222.17018532 127.79805261 174 87 C173.10410156 86.23816406 172.20820313 85.47632813 171.28515625 84.69140625 C160.3028426 75.44086347 149.08302311 66.78284032 137 59 C135.67935547 58.14148438 135.67935547 58.14148438 134.33203125 57.265625 C131.56920064 55.48631311 128.78794675 53.73967877 126 52 C124.95070312 51.33484375 123.90140625 50.6696875 122.8203125 49.984375 C88.74043129 28.71541992 48.31501001 12.44795903 8.87890625 4.68481445 C8.00621094 4.50523193 7.13351563 4.32564941 6.234375 4.140625 C5.46319336 3.99141602 4.69201172 3.84220703 3.89746094 3.68847656 C2 3 2 3 0 0 Z " fill="#2B1B0C" transform="translate(39,270)"/>
<path d="M0 0 C30.83222126 3.23995149 60.74990707 11.11968943 89 24 C91.41599354 25.00162518 93.83267384 26.00159528 96.25 27 C101.14379071 29.1004323 105.63806906 31.4135978 110.1328125 34.2578125 C112.41622732 35.64528254 114.69756492 36.92723015 117.0546875 38.1796875 C127.81449273 43.91473975 137.48712182 50.37977733 147 58 C147.55365234 58.44327637 148.10730469 58.88655273 148.67773438 59.34326172 C151.02358738 61.23105302 153.35268428 63.13735007 155.66796875 65.0625 C157.31064159 66.42726672 158.97134451 67.77047563 160.64453125 69.09765625 C163.29334608 71.23691466 165.62291314 73.56348597 168 76 C170.58128064 78.59445044 173.17623833 81.17180776 175.796875 83.7265625 C181.49801603 89.30305699 186.83014148 94.97495322 191.79296875 101.234375 C194.10761738 104.13485505 196.51860927 106.93611156 198.9375 109.75 C204.53624584 116.45981478 209.33805728 123.61731429 214 131 C214.92220337 132.44511963 214.92220337 132.44511963 215.86303711 133.91943359 C242.2487387 175.89110775 256.33932278 228.68610423 256.125 278.0625 C256.11774902 279.83838501 256.11774902 279.83838501 256.11035156 281.65014648 C255.72787783 338.04589901 239.33316424 390.68390642 207 437 C206.58218262 437.60328125 206.16436523 438.2065625 205.73388672 438.828125 C196.2070603 452.55203347 185.53378636 464.93146537 174 477 C173.15953125 477.88300781 172.3190625 478.76601563 171.453125 479.67578125 C166.31927903 484.94616568 160.84405008 489.53841338 155 494 C154.14341797 494.66322266 154.14341797 494.66322266 153.26953125 495.33984375 C133.15292799 510.90174439 111.80553491 524.13662077 88.33081055 534.01635742 C86.64999772 534.72568966 84.97503831 535.44894863 83.30395508 536.1809082 C75.500943 539.54491383 67.58184646 542.1541019 59.4375 544.5625 C58.78247498 544.75731964 58.12744995 544.95213928 57.45257568 545.15286255 C37.73644142 550.99997451 17.70203553 555.70575121 -3 555 C-3 554.67 -3 554.34 -3 554 C-1.62001831 553.81207886 -1.62001831 553.81207886 -0.2121582 553.62036133 C29.52436601 549.52766824 57.9706761 543.89841221 85.8125 532.25 C86.85059814 531.81679443 87.88869629 531.38358887 88.95825195 530.93725586 C99.07605679 526.65045 108.58243325 521.6595954 118 516 C119.26263672 515.2884375 119.26263672 515.2884375 120.55078125 514.5625 C137.47305731 504.98836928 152.51439384 493.41265698 166.61157227 480.04760742 C169.5737286 477.24044996 172.55708957 474.50599055 175.6875 471.88671875 C178.5334371 469.4703796 180.92226621 466.93257801 183.25 464 C184.00925781 463.04609375 184.76851562 462.0921875 185.55078125 461.109375 C186.35902344 460.08328125 187.16726562 459.0571875 188 458 C188.88824673 456.90017164 189.77759979 455.80123601 190.66796875 454.703125 C196.82960738 447.05381736 202.46529384 439.1655173 207.77490234 430.90332031 C208.98087787 429.02970828 210.20291571 427.16730429 211.42578125 425.3046875 C249.56356756 366.50798035 262.23633993 294.39025573 248.20385742 225.80834961 C246.19565261 216.42780858 243.88088666 207.1523553 241 198 C240.64421875 196.85273437 240.2884375 195.70546875 239.921875 194.5234375 C227.92452888 157.17169993 208.80942922 124.41833745 183 95 C181.75283203 93.56527344 181.75283203 93.56527344 180.48046875 92.1015625 C177.13834933 88.30965188 173.82684743 84.73593706 169.9375 81.5 C168.968125 80.675 167.99875 79.85 167 79 C167 78.34 167 77.68 167 77 C166.43796875 76.76023437 165.8759375 76.52046875 165.296875 76.2734375 C162.51099828 74.7288868 160.54949163 72.83165501 158.25 70.625 C146.70064895 59.94262436 133.6851291 50.73003236 120 43 C119.24549561 42.57090332 118.49099121 42.14180664 117.71362305 41.69970703 C98.22015943 30.66567102 78.30026435 21.90990718 57 15 C56.10539062 14.70351563 55.21078125 14.40703125 54.2890625 14.1015625 C37.97364576 8.75449315 21.64341275 5.84527062 4.69189453 3.46142578 C2 3 2 3 0 2 C0 1.34 0 0.68 0 0 Z " fill="#2D1C0D" transform="translate(3,338)"/>
<path d="M0 0 C0.495 0.99 0.495 0.99 1 2 C-3.86326189 11.98885741 -11.77531092 20.95263104 -18.38183594 29.82226562 C-21.07709349 33.44955853 -23.73851936 37.10034235 -26.37109375 40.7734375 C-27.43121696 42.22252678 -28.52653936 43.64671422 -29.66015625 45.0390625 C-31.30241762 47.01411804 -31.30241762 47.01411804 -33 50 C-32.48959656 52.91002521 -32.48959656 52.91002521 -31 55 C-31.66 55 -32.32 55 -33 55 C-30.48459645 60.24854135 -27.77490087 64.99512616 -24.4375 69.75 C-20.39909794 75.64826221 -16.84173736 81.71635766 -13.4375 88 C-12.97674072 88.84175781 -12.51598145 89.68351562 -12.04125977 90.55078125 C-9.85647884 94.54881062 -7.70962815 98.56026509 -5.62109375 102.609375 C-4.87376526 103.9903253 -4.12514471 105.37057746 -3.375 106.75 C-3.06361084 107.38808594 -2.75222168 108.02617188 -2.43139648 108.68359375 C-1.40047778 110.70052602 -1.40047778 110.70052602 1 113 C4.07109283 113.70550522 6.89405544 113.38243506 10 113 C10.88913086 112.89913086 11.77826172 112.79826172 12.69433594 112.69433594 C15.49222623 112.34128054 18.27554732 111.93055219 21.0625 111.5 C22.02349609 111.35691406 22.98449219 111.21382813 23.97460938 111.06640625 C26.3173455 110.71674414 28.65901777 110.3611856 31 110 C30.67 110.99 30.34 111.98 30 113 C21.09 113.99 12.18 114.98 3 116 C6.41750393 125.20097213 9.90985468 134.36500775 13.5 143.5 C16.26446836 150.5366212 18.99161941 157.58195646 21.62768555 164.66772461 C27.61193371 180.71923411 33.83770177 196.68338489 40.13208008 212.61547852 C40.48036865 213.50033936 40.82865723 214.3852002 41.1875 215.296875 C41.49042969 216.06354492 41.79335938 216.83021484 42.10546875 217.62011719 C43.14652737 220.38983318 44.0787088 223.18843841 45 226 C44.71395875 219.14558701 44.42140476 212.29147247 44.125 205.4375 C44.08086975 204.41170837 44.0367395 203.38591675 43.99127197 202.32904053 C43.44595987 189.74553937 42.78749085 177.18712352 41.875 164.625 C41.12467345 153.97179225 40.78749088 143.36310475 40.75 132.6875 C40.74482361 132.00544495 40.73964722 131.32338989 40.73431396 130.6206665 C40.72272409 128.70938573 40.72812155 126.79802444 40.734375 124.88671875 C40.73663086 123.79576904 40.73888672 122.70481934 40.74121094 121.58081055 C41 119 41 119 43 117 C43.99 117.33 44.98 117.66 46 118 C45.34 118.66 44.68 119.32 44 120 C43.49183427 124.0933314 43.67085979 128.25472766 43.6875 132.375 C43.68766113 133.03861542 43.68782227 133.70223083 43.68798828 134.38595581 C43.71835863 153.02928551 44.88240724 171.65329665 45.93237305 190.26123047 C46.33698976 197.50560113 46.6861433 204.75116659 47 212 C47.05317383 213.11816101 47.10634766 214.23632202 47.16113281 215.3883667 C47.29873048 218.538897 47.39143754 221.68732582 47.46875 224.83984375 C47.53564026 226.21493858 47.53564026 226.21493858 47.60388184 227.61781311 C47.68285401 233.53016166 46.35030722 236.89577519 42.7183075 241.55645752 C40.62116345 243.3182589 39.38212931 243.48072714 36.67578125 243.51953125 C34.88278858 243.3276764 33.09463597 243.08749522 31.3125 242.8125 C30.29921631 242.69173096 29.28593262 242.57096191 28.24194336 242.4465332 C25.87596288 242.16152264 23.51219466 241.8578068 21.15039062 241.54003906 C16.44736411 240.91333117 11.73256982 240.4077119 7.015625 239.8984375 C-13.88836564 237.616408 -34.68740526 234.89273935 -55.44775391 231.54541016 C-57.96057949 231.15959212 -60.46497168 230.80291869 -62.98583984 230.48193359 C-64.26281738 230.3164502 -65.53979492 230.1509668 -66.85546875 229.98046875 C-68.01071045 229.83891357 -69.16595215 229.6973584 -70.35620117 229.55151367 C-71.22865479 229.36951416 -72.1011084 229.18751465 -73 229 C-73.33 228.34 -73.66 227.68 -74 227 C-65.25973028 227.56505896 -56.66522182 228.72745477 -48.02337646 230.09768677 C-38.01212061 231.6811882 -28.0086123 233.24324338 -17.92138672 234.25927734 C-8.91944562 235.1772314 0.04590619 236.40912476 9.01611328 237.59204102 C22.27189367 239.46879021 22.27189367 239.46879021 35.625 240.0625 C36.46289062 240.05347656 37.30078125 240.04445312 38.1640625 240.03515625 C38.76992188 240.02355469 39.37578125 240.01195312 40 240 C40.66 238.68 41.32 237.36 42 236 C42.99 236 43.98 236 45 236 C43.53997528 229.5560783 41.44904544 223.52559126 39.08984375 217.359375 C38.69796371 216.3251239 38.30608368 215.2908728 37.90232849 214.22528076 C36.60741483 210.81458775 35.30467287 207.40697111 34 204 C33.54796204 202.81784912 33.09592407 201.63569824 32.63018799 200.41772461 C29.77599682 192.95919783 26.90804848 185.50607573 24.03149414 178.05615234 C22.78658784 174.83182321 21.54461402 171.60637243 20.30328465 168.38066483 C19.10112313 165.25829062 17.89610098 162.13702269 16.69140625 159.015625 C16.24873917 157.86475403 15.80607208 156.71388306 15.34999084 155.52813721 C14.93873459 154.46472107 14.52747833 153.40130493 14.10375977 152.30566406 C13.7445192 151.37433655 13.38527863 150.44300903 13.01515198 149.48345947 C12.10568731 147.25855257 11.10931352 145.130964 10 143 C0.54815444 150.5245712 -8.86931135 158.08673651 -18 166 C-18.66 165.67 -19.32 165.34 -20 165 C-8.44594595 154.35101351 -8.44594595 154.35101351 -3.75 150.3125 C0.371616 146.74505086 4.19298305 142.89814235 8 139 C6.27023978 132.84100529 4.25991704 126.92609577 1.76953125 121.03125 C1 119 1 119 1 117 C-6.72912338 118.00676814 -14.45803084 119.01517717 -22.18667889 120.02558708 C-25.77677631 120.49489045 -29.36694125 120.96366307 -32.95727539 121.43115234 C-36.43285352 121.88372056 -39.90823477 122.33777478 -43.38349342 122.79278946 C-45.33110893 123.04741717 -47.27891701 123.30057049 -49.22673035 123.55368042 C-57.16965136 124.59522991 -65.08565403 125.76141987 -73 127 C-78.07027353 127.7653489 -83.14513932 128.49945075 -88.22021484 129.23217773 C-89.7403267 129.45242954 -91.26018541 129.67443563 -92.77978516 129.89819336 C-102.18076612 131.28176065 -111.50816535 132.43327674 -121 133 C-121 132.34 -121 131.68 -121 131 C-109.22756254 129.07808688 -97.4507253 127.34316488 -85.61434937 125.86569214 C-82.2381573 125.44389633 -78.86292893 125.01460634 -75.48762512 124.58576965 C-73.77378346 124.36803042 -72.05990635 124.15057 -70.34599304 123.93339539 C-51.94214389 121.60072359 -33.5540585 119.20653889 -15.24291992 116.21850586 C-10.44803708 115.45090655 -5.87589399 114.76622426 -1 115 C-10.87697204 97.23190214 -20.98575782 79.57251916 -31.80029297 62.35595703 C-35 57.21187809 -35 57.21187809 -35 55 C-38.39573211 56.92523247 -41.21663445 58.96008543 -44.0625 61.625 C-49.41879548 66.49271447 -55.1615902 70.7323299 -61 75 C-61.99 74.505 -61.99 74.505 -63 74 C-62.55720703 73.64284912 -62.11441406 73.28569824 -61.65820312 72.91772461 C-50.15099009 63.67009309 -50.15099009 63.67009309 -39 54 C-40.55566559 50.51265487 -42.4134389 48.67492419 -45.4140625 46.2890625 C-49.11455716 43.28127127 -52.26000484 39.89367733 -55 36 C-53.3125 35.1875 -53.3125 35.1875 -51 35 C-48.75 37 -48.75 37 -47.50390625 38.38671875 C-45.68008888 40.34317739 -43.70902659 42.06193641 -41.6875 43.8125 C-40.99011719 44.41707031 -40.29273438 45.02164063 -39.57421875 45.64453125 C-39.05472656 46.09183594 -38.53523437 46.53914063 -38 47 C-38.33 47.99 -38.66 48.98 -39 50 C-36.54775306 49.89386164 -36.54775306 49.89386164 -34 49 C-33.3281654 47.33540981 -32.66269748 45.66824886 -32 44 C-30.50046849 41.8984261 -28.98597703 39.88569995 -27.375 37.875 C-26.45988694 36.70785419 -25.54583651 35.53987449 -24.6328125 34.37109375 C-24.18196289 33.79601074 -23.73111328 33.22092773 -23.26660156 32.62841797 C-15.07112568 22.09182889 -7.6308538 10.94602869 0 0 Z " fill="#281A0C" transform="translate(953,0)"/>
<path d="M0 0 C0.33 0 0.66 0 1 0 C1.24637816 13.5540867 0.47202326 26.95704941 -0.49609375 40.47265625 C-0.65109085 42.69360769 -0.8056283 44.91459125 -0.95973206 47.13560486 C-1.28148864 51.75562184 -1.60707042 56.37534643 -1.93579102 60.99487305 C-2.3560647 66.90201913 -2.76919712 72.80963681 -3.17980862 78.71746159 C-3.49790652 83.28929422 -3.8184438 87.86095301 -4.13984871 92.43255424 C-4.2929842 94.61133135 -4.44567358 96.79013987 -4.59789848 98.96898079 C-4.81095597 102.00951601 -5.02697893 105.04982591 -5.24389648 108.09008789 C-5.30575638 108.97904251 -5.36761627 109.86799713 -5.43135071 110.78388977 C-5.7989346 115.88387824 -6.3212479 120.9317662 -7 126 C-6.34 126.33 -5.68 126.66 -5 127 C-5.99 127.99 -5.99 127.99 -7 129 C-8.32 128.34 -9.64 127.68 -11 127 C-10.34 127 -9.68 127 -9 127 C-8.97494385 126.33468262 -8.9498877 125.66936523 -8.92407227 124.98388672 C-8.80748864 121.94742513 -8.68504649 118.91122654 -8.5625 115.875 C-8.52318359 114.82828125 -8.48386719 113.7815625 -8.44335938 112.703125 C-8.40146484 111.68476562 -8.35957031 110.66640625 -8.31640625 109.6171875 C-8.27974854 108.68503418 -8.24309082 107.75288086 -8.20532227 106.79248047 C-8 104 -8 104 -7.52096558 101.30917358 C-6.94183537 97.63053824 -6.67203584 93.97382431 -6.45922852 90.26074219 C-6.41352722 89.50849365 -6.36782593 88.75624512 -6.32073975 87.98120117 C-6.22225917 86.3542569 -6.12520135 84.72722601 -6.02942085 83.10012054 C-5.87655053 80.5069139 -5.71946157 77.91399276 -5.56126404 75.32110596 C-5.11238104 67.95042316 -4.67147043 60.57926768 -4.23217773 53.20800781 C-3.962514 48.68800849 -3.68833838 44.16829889 -3.411726 39.64871979 C-3.30834691 37.94439358 -3.20666598 36.23996331 -3.10687447 34.53542328 C-2.42989202 22.97260019 -1.38446571 11.49993075 0 0 Z " fill="#2C1D0E" transform="translate(826,1)"/>
<path d="M0 0 C1.32 0 2.64 0 4 0 C4 0.66 4 1.32 4 2 C4.86347046 2.40508789 4.86347046 2.40508789 5.74438477 2.81835938 C8.03665324 4.0192014 10.01090947 5.36755315 12.08984375 6.90625 C12.86714844 7.47988281 13.64445313 8.05351563 14.4453125 8.64453125 C15.26773438 9.25683594 16.09015625 9.86914062 16.9375 10.5 C17.79214844 11.13292969 18.64679687 11.76585938 19.52734375 12.41796875 C25.25754304 16.67246912 30.92283007 21.00137842 36.5625 25.375 C40.82352092 28.6527084 45.16561972 31.82037816 49.5 35 C57.08303501 40.56517401 64.57281088 46.22861464 72 52 C73.58690106 53.23141951 75.1738376 54.46279946 76.76367188 55.69042969 C77.8307542 56.51628674 78.89461744 57.34632139 79.95507812 58.18066406 C82.94915616 60.51444421 85.99229791 62.6709925 89.1875 64.72265625 C99.64783565 71.57801747 99.64783565 71.57801747 100.72265625 75.91796875 C100.45629162 78.50498964 99.99308913 80.60306759 99 83 C97.515 82.505 97.515 82.505 96 82 C96.32226562 80.8140625 96.64453125 79.628125 96.9765625 78.40625 C97.30179924 75.69475246 97.37584426 74.50885313 95.73339844 72.28515625 C93.69389657 70.54414454 91.58673087 69.01662194 89.375 67.5 C87.71330214 66.28808877 86.05185401 65.07583508 84.390625 63.86328125 C83.51083984 63.23631348 82.63105469 62.6093457 81.72460938 61.96337891 C77.1134865 58.64056079 72.63054611 55.15127078 68.125 51.6875 C57.1998264 43.36772655 46.21392775 35.13817649 35.1328125 27.02734375 C28.14004478 21.90782111 21.1619326 16.7684088 14.19140625 11.61865234 C12.79100073 10.5842619 11.39001594 9.55065494 9.98828125 8.51806641 C8.26057518 7.24447176 6.53596636 5.96682303 4.8125 4.6875 C3.87019531 3.99011719 2.92789063 3.29273438 1.95703125 2.57421875 C1.31121094 2.05472656 0.66539062 1.53523438 0 1 C0 0.67 0 0.34 0 0 Z " fill="#2E1D0E" transform="translate(713,54)"/>
<path d="M0 0 C4.4801849 0.59326265 8.24222706 1.7498598 12.40625 3.4921875 C13.33841591 3.87886848 13.33841591 3.87886848 14.28941345 4.27336121 C16.36211089 5.13469931 18.43098491 6.00485787 20.5 6.875 C21.97377098 7.48949581 23.44781821 8.10332945 24.92211914 8.71655273 C27.31118277 9.71062332 29.69992004 10.70544022 32.08766174 11.7026825 C38.74625919 14.4834439 45.41628595 17.23582768 52.08984375 19.98046875 C54.1575676 20.83150526 56.22527595 21.68257944 58.29296875 22.53369141 C61.34447786 23.7897303 64.39610153 25.04548423 67.44824219 26.29998779 C88.13117921 34.80534072 88.13117921 34.80534072 97 39 C96.34 36.69 95.68 34.38 95 32 C96.48828125 33.05078125 96.48828125 33.05078125 98 35 C98.29296875 38.35546875 98.29296875 38.35546875 98.1875 42.1875 C98.14689453 44.09595703 98.14689453 44.09595703 98.10546875 46.04296875 C98.07066406 47.01878906 98.03585937 47.99460937 98 49 C95.984375 47.171875 95.984375 47.171875 94 45 C94.25 42.25 94.25 42.25 95 40 C94.20400391 39.75314453 93.40800781 39.50628906 92.58789062 39.25195312 C88.15393547 37.70477552 83.89562151 35.84715671 79.59375 33.96875 C67.97589797 28.94352944 56.24901697 24.20843631 44.5 19.5 C29.5820303 13.5216011 14.74106802 7.40357457 0 1 C0 0.67 0 0.34 0 0 Z " fill="#2A1C0D" transform="translate(926,250)"/>
<path d="M0 0 C4.15378624 1.55888015 6.46940429 4.59709712 9.1875 7.9375 C9.67162354 8.52160645 10.15574707 9.10571289 10.65454102 9.70751953 C12.10959151 11.4663928 13.5552465 13.23266617 15 15 C16.13695312 16.37478516 16.13695312 16.37478516 17.296875 17.77734375 C20.61974888 21.80966333 23.90320972 25.86782017 27.12109375 29.984375 C27.92945679 31.01232178 27.92945679 31.01232178 28.75415039 32.06103516 C29.81781243 33.41548596 30.87580309 34.77441379 31.92749023 36.13818359 C34.81968846 39.91918288 34.81968846 39.91918288 39 42 C39.23847656 40.79730469 39.47695313 39.59460937 39.72265625 38.35546875 C41.1678024 31.86184369 43.31738017 25.61120819 45.4375 19.3125 C45.83259766 18.11560547 46.22769531 16.91871094 46.63476562 15.68554688 C47.02212891 14.52732422 47.40949219 13.36910156 47.80859375 12.17578125 C48.15720459 11.13333252 48.50581543 10.09088379 48.86499023 9.0168457 C50.04316172 5.88527654 51.45394703 2.96499895 53 0 C54.3105 3.93149999 53.37870669 5.56842182 52.05078125 9.46875 C51.83689255 10.1042981 51.62300385 10.73984619 51.40263367 11.39465332 C50.71429815 13.43272102 50.01346984 15.46624771 49.3125 17.5 C48.8592299 18.83827228 48.40674767 20.17681168 47.95507812 21.515625 C45.40462462 29.04722147 42.75776802 36.54160222 40 44 C40.99 44.33 41.98 44.66 43 45 C41.741875 45.0825 40.48375 45.165 39.1875 45.25 C35.66188788 45.66557143 35.66188788 45.66557143 33 48.0625 C32.67 48.701875 32.34 49.34125 32 50 C32 48.02 32 46.04 32 44 C32.99 43.67 33.98 43.34 35 43 C33.83984375 41.65808594 33.83984375 41.65808594 32.65625 40.2890625 C27.37060787 34.15880745 22.15410618 28.0040548 17.14453125 21.64453125 C13.90337507 17.64769567 10.52075019 13.77250739 7.12304688 9.90820312 C4.38229294 6.75687633 2.02348754 3.68095173 0 0 Z " fill="#2F1E0F" transform="translate(666,0)"/>
<path d="M0 0 C2.7310948 1.28812524 5.08767248 2.70331137 7.4765625 4.546875 C8.13760986 5.05460449 8.79865723 5.56233398 9.47973633 6.08544922 C10.18767334 6.63475098 10.89561035 7.18405273 11.625 7.75 C12.37354248 8.32637207 13.12208496 8.90274414 13.89331055 9.49658203 C18.47973892 13.03297855 23.04648841 16.59446537 27.61206055 20.15771484 C28.33820557 20.72441895 29.06435059 21.29112305 29.8125 21.875 C30.54315674 22.44557129 31.27381348 23.01614258 32.02661133 23.60400391 C38.74118766 28.83170329 45.54135101 33.94196636 52.36450195 39.02685547 C56.29488907 41.95778875 60.19926782 44.90082285 64 48 C63.505 48.99 63.505 48.99 63 50 C36.91384852 30.06974761 36.91384852 30.06974761 28.6875 23.625 C23.17323128 19.32591272 17.56369246 15.15270208 11.96484375 10.96484375 C11.32144043 10.48128418 10.67803711 9.99772461 10.01513672 9.49951172 C8.59368264 8.44177353 7.1619663 7.39775875 5.72314453 6.36376953 C4.9907959 5.83251465 4.25844727 5.30125977 3.50390625 4.75390625 C2.49759155 4.03376343 2.49759155 4.03376343 1.47094727 3.29907227 C0.98553467 2.87037842 0.50012207 2.44168457 0 2 C0 1.34 0 0.68 0 0 Z " fill="#2F1E0F" transform="translate(960,3)"/>
<path d="M0 0 C0.66 0.33 1.32 0.66 2 1 C-9.93221754 8.16421363 -21.93583576 15.12982736 -34.18847656 21.73242188 C-41.93787441 25.92356626 -49.50259252 30.3754309 -57 35 C-57.33 34.34 -57.66 33.68 -58 33 C-55.316745 29.77813542 -51.83378598 28.31364373 -48.125 26.5625 C-41.47356733 23.33136473 -35.02963129 19.81995694 -28.625 16.125 C-27.74690674 15.61952637 -26.86881348 15.11405273 -25.96411133 14.59326172 C-24.19136298 13.57176606 -22.41898202 12.54963254 -20.64697266 11.52685547 C-16.37779066 9.06425962 -12.10227788 6.61404982 -7.8125 4.1875 C-7.05211426 3.74873535 -6.29172852 3.3099707 -5.50830078 2.85791016 C-3.70577294 1.8431815 -1.85650652 0.91223047 0 0 Z " fill="#2A1B0D" transform="translate(773,8)"/>
<path d="M0 0 C0.66 0.33 1.32 0.66 2 1 C-4.25186067 6.79234286 -10.59089049 12.34695036 -17.2265625 17.69921875 C-21.10344211 20.91539071 -24.79847478 24.31470573 -28.4921875 27.73828125 C-30.92279874 29.93037456 -33.42369248 31.98235414 -36 34 C-36.66 33.67 -37.32 33.34 -38 33 C-31.3942086 26.83228901 -24.71595099 20.86908916 -17.671875 15.19921875 C-14.10351844 12.26210655 -10.69296591 9.167957 -7.2890625 6.04296875 C-4.92682154 3.93468885 -2.4886424 1.95661814 0 0 Z " fill="#2A1B0D" transform="translate(931,166)"/>
<path d="M0 0 C1.32 0.33 2.64 0.66 4 1 C4 1.66 4 2.32 4 3 C4.7734375 3.32291016 4.7734375 3.32291016 5.5625 3.65234375 C9.02930239 5.56908546 11.9423981 8.05676553 15 10.5625 C21.55168779 15.87341713 28.2122278 20.99449201 35 26 C34.34 26.66 33.68 27.32 33 28 C32.31035156 27.43152344 31.62070312 26.86304687 30.91015625 26.27734375 C26.5220789 22.67177676 22.13531503 19.07702882 17.625 15.625 C13.64775313 12.55331936 9.7831697 9.35869304 5.9375 6.125 C5.35242676 5.63596191 4.76735352 5.14692383 4.16455078 4.64306641 C2.75654964 3.45174543 1.37544798 2.22876188 0 1 C0 0.67 0 0.34 0 0 Z " fill="#221509" transform="translate(932,61)"/>
<path d="M0 0 C0.66 0.66 1.32 1.32 2 2 C1.75 4.0625 1.75 4.0625 1 6 C-1.70879335 7.35439668 -4.00933268 7.06501451 -7 7 C-7.33 5.35 -7.66 3.7 -8 2 C-4.77626323 -0.14915785 -3.73296326 -0.38286803 0 0 Z " fill="#372210" transform="translate(54,840)"/>
<path d="M0 0 C6.875 0.875 6.875 0.875 8 2 C8.04063832 3.66617115 8.042721 5.33388095 8 7 C6.3125 7.6875 6.3125 7.6875 4 8 C1.25 6.5625 1.25 6.5625 -1 5 C-0.67 3.35 -0.34 1.7 0 0 Z " fill="#382411" transform="translate(83,402)"/>
<path d="M0 0 C0.66 0.66 1.32 1.32 2 2 C1.625 4.625 1.625 4.625 1 7 C-4.75 6.25 -4.75 6.25 -7 4 C-7 2.68 -7 1.36 -7 0 C-4.29393021 -1.35303489 -2.8671629 -0.7884698 0 0 Z " fill="#372311" transform="translate(123,423)"/>
<path d="M0 0 C2.875 -0.125 2.875 -0.125 6 0 C6.66 0.66 7.32 1.32 8 2 C7.625 4.625 7.625 4.625 7 7 C4.125 7.125 4.125 7.125 1 7 C0.34 6.34 -0.32 5.68 -1 5 C-0.625 2.375 -0.625 2.375 0 0 Z " fill="#392411" transform="translate(47,388)"/>
<path d="M0 0 C2.875 -0.125 2.875 -0.125 6 0 C8 2 8 2 8.125 4.625 C8.08375 5.40875 8.0425 6.1925 8 7 C2.375 7.25 2.375 7.25 -1 5 C-0.67 3.35 -0.34 1.7 0 0 Z " fill="#3A2512" transform="translate(28,383)"/>
<path d="M0 0 C3.875 0.875 3.875 0.875 5 2 C4.71269945 4.33944736 4.38063221 6.6739143 4 9 C2.02 9 0.04 9 -2 9 C-2.25 3.375 -2.25 3.375 0 0 Z " fill="#352110" transform="translate(217,621)"/>
<path d="M0 0 C2.875 -0.125 2.875 -0.125 6 0 C8 2 8 2 8.125 4.625 C8.08375 5.40875 8.0425 6.1925 8 7 C5.6875 7.6875 5.6875 7.6875 3 8 C1.1875 6.875 1.1875 6.875 0 5 C-0.1875 2.3125 -0.1875 2.3125 0 0 Z " fill="#362211" transform="translate(146,447)"/>
<path d="M0 0 C3.25696479 0.41755959 4.63443291 0.63443291 7 3 C6.625 5.625 6.625 5.625 6 8 C3.15673536 8.23053497 1.53854651 8.35903101 -0.875 6.75 C-2 5 -2 5 -1.75 2.875 C-1 1 -1 1 0 0 Z " fill="#3A2512" transform="translate(9,379)"/>
<path d="M0 0 C0.94875 0.04125 1.8975 0.0825 2.875 0.125 C4 4.875 4 4.875 2.875 7.125 C0.565 6.795 -1.745 6.465 -4.125 6.125 C-4.75 4.25 -4.75 4.25 -5.125 2.125 C-3.125 0.125 -3.125 0.125 0 0 Z " fill="#362210" transform="translate(12.125,847.875)"/>
<path d="M0 0 C2.33944736 0.28730055 4.6739143 0.61936779 7 1 C6.125 5.875 6.125 5.875 5 7 C2.66055264 6.71269945 0.3260857 6.38063221 -2 6 C-1.125 1.125 -1.125 1.125 0 0 Z " fill="#372311" transform="translate(29,845)"/>
<path d="M0 0 C1.32 0 2.64 0 4 0 C6.1519437 3.22791555 6.20086443 4.28400809 6 8 C3.625 8.625 3.625 8.625 1 9 C-1 7 -1 7 -1.1875 3.9375 C-1 1 -1 1 0 0 Z " fill="#362211" transform="translate(192,508)"/>
<path d="M0 0 C2.4375 0.25 2.4375 0.25 5 1 C7 4 7 4 7 8 C4.125 8.125 4.125 8.125 1 8 C-1 6 -1 6 -1.1875 3.4375 C-1 1 -1 1 0 0 Z " fill="#382311" transform="translate(133,433)"/>
<path d="M0 0 C0.66 0.33 1.32 0.66 2 1 C2 2.65 2 4.3 2 6 C-1.375 6.125 -1.375 6.125 -5 6 C-5.66 5.34 -6.32 4.68 -7 4 C-7 2.68 -7 1.36 -7 0 C-4.30919898 -1.34540051 -2.86443593 -0.71610898 0 0 Z " fill="#392412" transform="translate(71,395)"/>
<path d="M0 0 C0.33 1.65 0.66 3.3 1 5 C-1.57213134 6.61949011 -2.67669159 7.04408751 -5.75 6.625 C-6.4925 6.41875 -7.235 6.2125 -8 6 C-7.625 3.5625 -7.625 3.5625 -7 1 C-4.53721199 -0.231394 -2.7204945 -0.07159196 0 0 Z " fill="#382311" transform="translate(73,834)"/>
<path d="M0 0 C2.125 0.375 2.125 0.375 4 1 C4.625 3.375 4.625 3.375 5 6 C3 8 3 8 -0.125 8.125 C-1.548125 8.063125 -1.548125 8.063125 -3 8 C-2.25 2.25 -2.25 2.25 0 0 Z " fill="#362210" transform="translate(121,805)"/>
<path d="M0 0 C1.32 0 2.64 0 4 0 C5.35439668 2.70879335 5.06501451 5.00933268 5 8 C3.02 8.99 3.02 8.99 1 10 C-1 8 -1 8 -1.1875 4.4375 C-1 1 -1 1 0 0 Z " fill="#362110" transform="translate(215,641)"/>
<path d="M0 0 C2.4375 0.1875 2.4375 0.1875 3.4375 1.1875 C3.47813832 2.85367115 3.480221 4.52138095 3.4375 6.1875 C0.72870665 7.54189668 -1.57183268 7.25251451 -4.5625 7.1875 C-4.6875 4.8125 -4.6875 4.8125 -4.5625 2.1875 C-2.5625 0.1875 -2.5625 0.1875 0 0 Z " fill="#372311" transform="translate(88.5625,825.8125)"/>
<path d="M0 0 C1.32 0.33 2.64 0.66 4 1 C4.125 3.875 4.125 3.875 4 7 C3.34 7.66 2.68 8.32 2 9 C0.68 9 -0.64 9 -2 9 C-2.6875 6.75 -2.6875 6.75 -3 4 C-1.5625 1.6875 -1.5625 1.6875 0 0 Z " fill="#35210F" transform="translate(185,734)"/>
<path d="M0 0 C0.99 0 1.98 0 3 0 C3.625 3.375 3.625 3.375 4 7 C3.34 7.66 2.68 8.32 2 9 C-0.625 8.625 -0.625 8.625 -3 8 C-2.25 2.25 -2.25 2.25 0 0 Z " fill="#35210F" transform="translate(202,698)"/>
<path d="M0 0 C1.9375 0.25 1.9375 0.25 4 1 C6 4 6 4 5.625 6.6875 C5.41875 7.450625 5.2125 8.21375 5 9 C0.125 8.125 0.125 8.125 -1 7 C-1.125 4 -1.125 4 -1 1 C-0.67 0.67 -0.34 0.34 0 0 Z " fill="#372211" transform="translate(211,563)"/>
<path d="M0 0 C1.65 0.33 3.3 0.66 5 1 C5.33 3.31 5.66 5.62 6 8 C4.68 8.33 3.36 8.66 2 9 C0.4375 7.3125 0.4375 7.3125 -1 5 C-0.6875 2.25 -0.6875 2.25 0 0 Z " fill="#372210" transform="translate(199,526)"/>
<path d="M0 0 C2.8992226 0.46761655 3.86675182 0.86675182 6 3 C6.125 6.125 6.125 6.125 6 9 C1.25 8.25 1.25 8.25 -1 6 C-1.1875 3.4375 -1.1875 3.4375 -1 1 C-0.67 0.67 -0.34 0.34 0 0 Z " fill="#382311" transform="translate(160,460)"/>
<path d="M0 0 C1 1 1 1 1.0625 3.5625 C1.041875 4.366875 1.02125 5.17125 1 6 C-4.47826087 6.36521739 -4.47826087 6.36521739 -6.875 4.6875 C-8 3 -8 3 -8 0 C-5.11795733 -1.44102133 -3.08226581 -0.65580124 0 0 Z " fill="#3B2512" transform="translate(107,413)"/>
<path d="M0 0 C1.32 0 2.64 0 4 0 C5.36623674 2.73247348 5.128426 4.98198902 5 8 C4 9 4 9 1.4375 9.0625 C0.633125 9.041875 -0.17125 9.02125 -1 9 C-1.125 2.25 -1.125 2.25 0 0 Z " fill="#352110" transform="translate(212,660)"/>
<path d="M0 0 C2.86724686 0.57344937 3.8614515 0.8614515 6 3 C5.625 5.625 5.625 5.625 5 8 C3.125 8.625 3.125 8.625 1 9 C0.34 8.34 -0.32 7.68 -1 7 C-0.625 3.375 -0.625 3.375 0 0 Z " fill="#372310" transform="translate(206,544)"/>
<path d="M0 0 C2.375 -0.125 2.375 -0.125 5 0 C7 2 7 2 7.125 5.125 C7.08375 6.07375 7.0425 7.0225 7 8 C4.625 8.1875 4.625 8.1875 2 8 C-0.1519437 4.77208445 -0.20086443 3.71599191 0 0 Z " fill="#392411" transform="translate(171,476)"/>
<path d="M0 0 C2.625 0.375 2.625 0.375 5 1 C5.042721 2.66611905 5.04063832 4.33382885 5 6 C4 7 4 7 0.4375 7.0625 C-0.696875 7.041875 -1.83125 7.02125 -3 7 C-2.25 2.25 -2.25 2.25 0 0 Z " fill="#362210" transform="translate(104,816)"/>
<path d="M0 0 C0.99 0.33 1.98 0.66 3 1 C3.23053497 3.84326464 3.35903101 5.46145349 1.75 7.875 C0 9 0 9 -2.1875 8.6875 C-2.785625 8.460625 -3.38375 8.23375 -4 8 C-4.25 5.6875 -4.25 5.6875 -4 3 C-2.1875 1.125 -2.1875 1.125 0 0 Z " fill="#35210F" transform="translate(164,765)"/>
<path d="M0 0 C2.625 0.375 2.625 0.375 5 1 C5.125 3.375 5.125 3.375 5 6 C4.34 6.66 3.68 7.32 3 8 C0.375 7.625 0.375 7.625 -2 7 C-2.125 4.625 -2.125 4.625 -2 2 C-1.34 1.34 -0.68 0.68 0 0 Z " fill="#362210" transform="translate(174,751)"/>
<path d="M0 0 C1.32 0.33 2.64 0.66 4 1 C4.04241723 3.33294775 4.04092937 5.66702567 4 8 C3 9 3 9 0.4375 9.0625 C-0.366875 9.041875 -1.17125 9.02125 -2 9 C-2.25 3.375 -2.25 3.375 0 0 Z " fill="#36210F" transform="translate(194,716)"/>
<path d="M0 0 C1.67542976 0.28604898 3.34385343 0.61781233 5 1 C5 3.31 5 5.62 5 8 C3.125 8.625 3.125 8.625 1 9 C-1 7 -1 7 -1.1875 3.9375 C-1 1 -1 1 0 0 Z " fill="#382311" transform="translate(215,583)"/>
<path d="M0 0 C2.375 -0.1875 2.375 -0.1875 5 0 C7 3 7 3 6.625 5.6875 C6.41875 6.450625 6.2125 7.21375 6 8 C1.125 7.125 1.125 7.125 0 6 C-0.04080783 4.00041636 -0.04254356 1.99954746 0 0 Z " fill="#392412" transform="translate(182,492)"/>
<path d="M0 0 C2.125 0.375 2.125 0.375 4 1 C4.125 6.75 4.125 6.75 3 9 C1.35 8.67 -0.3 8.34 -2 8 C-2.125 5.125 -2.125 5.125 -2 2 C-1.34 1.34 -0.68 0.68 0 0 Z " fill="#35200F" transform="translate(208,680)"/>
<path d="M0 0 C0.99 0 1.98 0 3 0 C3.33 1.98 3.66 3.96 4 6 C1 8 1 8 -1.6875 7.625 C-2.450625 7.41875 -3.21375 7.2125 -4 7 C-2.92598892 4.08482708 -2.22189824 2.22189824 0 0 Z " fill="#342010" transform="translate(137,793)"/>
<path d="M0 0 C2.125 0.375 2.125 0.375 4 1 C4.6875 2.8125 4.6875 2.8125 5 5 C3.8125 6.75 3.8125 6.75 2 8 C0.68 8 -0.64 8 -2 8 C-2.125 5.125 -2.125 5.125 -2 2 C-1.34 1.34 -0.68 0.68 0 0 Z " fill="#362210" transform="translate(149,780)"/>
<path d="M0 0 C2.0625 0.4375 2.0625 0.4375 4 1 C4.625 3.875 4.625 3.875 5 7 C4.34 7.66 3.68 8.32 3 9 C0.875 8.625 0.875 8.625 -1 8 C-1.04241723 5.66705225 -1.04092937 3.33297433 -1 1 C-0.67 0.67 -0.34 0.34 0 0 Z " fill="#392311" transform="translate(217,602)"/>
<path d="M0 0 C2.31 0 4.62 0 7 0 C6.360625 0.2475 5.72125 0.495 5.0625 0.75 C2.84359462 1.81408299 2.84359462 1.81408299 2.1875 4 C1.81548911 6.07160124 1.81548911 6.07160124 3 8 C3.99 8 4.98 8 6 8 C6 8.66 6 9.32 6 10 C3.36 10.99 0.72 11.98 -2 13 C-1.649375 12.113125 -1.29875 11.22625 -0.9375 10.3125 C0.03189914 6.88728971 -0.15938629 5.36245483 -1 2 C-0.67 1.34 -0.34 0.68 0 0 Z " fill="#2B1C0D" transform="translate(988,108)"/>
<path d="M0 0 C1.65 0 3.3 0 5 0 C5 1.98 5 3.96 5 6 C2.83125748 5.49396008 1.00032373 5.00016187 -1 4 C-0.67 2.68 -0.34 1.36 0 0 Z " fill="#342110" transform="translate(114,254)"/>
<path d="M0 0 C0.99 0 1.98 0 3 0 C4.125 4.75 4.125 4.75 3 7 C1.68 6.67 0.36 6.34 -1 6 C-1.042721 4.33388095 -1.04063832 2.66617115 -1 1 C-0.67 0.67 -0.34 0.34 0 0 Z " fill="#311F0E" transform="translate(366,629)"/>
<path d="M0 0 C1.67542976 0.28604898 3.34385343 0.61781233 5 1 C5 2.65 5 4.3 5 6 C3.35 5.67 1.7 5.34 0 5 C-0.5625 3.0625 -0.5625 3.0625 -1 1 C-0.67 0.67 -0.34 0.34 0 0 Z " fill="#352211" transform="translate(217,312)"/>
<path d="M0 0 C1.98 0 3.96 0 6 0 C6 1.65 6 3.3 6 5 C4.35 5 2.7 5 1 5 C0.67 3.35 0.34 1.7 0 0 Z " fill="#382412" transform="translate(55,237)"/>
<path d="M0 0 C-0.33 1.98 -0.66 3.96 -1 6 C-2.65 6.33 -4.3 6.66 -6 7 C-5.37162381 3.35541809 -4.14650034 0 0 0 Z " fill="#2B1B0C" transform="translate(919,921)"/>
<path d="M0 0 C1.32 0.66 2.64 1.32 4 2 C3.67 3.65 3.34 5.3 3 7 C2.01 7 1.02 7 0 7 C-0.38133299 5.0085944 -0.71325582 3.00720923 -1 1 C-0.67 0.67 -0.34 0.34 0 0 Z " fill="#321F0E" transform="translate(365,589)"/>
<path d="M0 0 C1.32 0.33 2.64 0.66 4 1 C4.33 2.65 4.66 4.3 5 6 C3.68 6 2.36 6 1 6 C0 5 0 5 -0.0625 2.4375 C-0.041875 1.633125 -0.02125 0.82875 0 0 Z " fill="#332010" transform="translate(321,434)"/>
<path d="M0 0 C1.98 0 3.96 0 6 0 C5.67 1.65 5.34 3.3 5 5 C3.35 4.67 1.7 4.34 0 4 C0 2.68 0 1.36 0 0 Z " fill="#372311" transform="translate(75,242)"/>
<path d="M0 0 C1.65 0 3.3 0 5 0 C5 1.98 5 3.96 5 6 C3.68 5.67 2.36 5.34 1 5 C0.67 3.35 0.34 1.7 0 0 Z " fill="#352110" transform="translate(299,399)"/>
<path d="M0 0 C1.32 0.66 2.64 1.32 4 2 C4 3.65 4 5.3 4 7 C1.525 6.01 1.525 6.01 -1 5 C-0.67 3.35 -0.34 1.7 0 0 Z " fill="#342010" transform="translate(288,382)"/>
<path d="M0 0 C0.99 0.33 1.98 0.66 3 1 C3.33 2.98 3.66 4.96 4 7 C2.68 6.67 1.36 6.34 0 6 C-0.38218767 4.34385343 -0.71395102 2.67542976 -1 1 C-0.67 0.67 -0.34 0.34 0 0 Z " fill="#362211" transform="translate(233,324)"/>
<path d="M0 0 C2.475 0.495 2.475 0.495 5 1 C5 2.65 5 4.3 5 6 C3.68 6 2.36 6 1 6 C0.67 4.02 0.34 2.04 0 0 Z " fill="#362211" transform="translate(184,289)"/>
<path d="M0 0 C2.97 0.495 2.97 0.495 6 1 C6 2.32 6 3.64 6 5 C4.35 5 2.7 5 1 5 C0.67 3.35 0.34 1.7 0 0 Z " fill="#372311" transform="translate(167,279)"/>
<path d="M0 0 C1.65 0 3.3 0 5 0 C5.33 1.65 5.66 3.3 6 5 C3.03 4.505 3.03 4.505 0 4 C0 2.68 0 1.36 0 0 Z " fill="#362210" transform="translate(150,270)"/>
<path d="M0 0 C1.67542976 0.28604898 3.34385343 0.61781233 5 1 C5 2.32 5 3.64 5 5 C3.35 5 1.7 5 0 5 C-0.5625 3.0625 -0.5625 3.0625 -1 1 C-0.67 0.67 -0.34 0.34 0 0 Z " fill="#3B2613" transform="translate(16,229)"/>
<path d="M0 0 C0.99 0 1.98 0 3 0 C2.67 1.65 2.34 3.3 2 5 C0.68 5.33 -0.64 5.66 -2 6 C-2 2 -2 2 0 0 Z " fill="#2B1C0C" transform="translate(947,896)"/>
<path d="M0 0 C1.98 0.495 1.98 0.495 4 1 C3.67 2.65 3.34 4.3 3 6 C1.68 5.67 0.36 5.34 -1 5 C-0.67 3.35 -0.34 1.7 0 0 Z " fill="#33200F" transform="translate(364,650)"/>
<path d="M0 0 C0.99 0.33 1.98 0.66 3 1 C3 2.98 3 4.96 3 7 C2.01 7 1.02 7 0 7 C-1 6 -1 6 -1.125 3.5 C-1 1 -1 1 0 0 Z " fill="#33200F" transform="translate(366,609)"/>
<path d="M0 0 C2.475 0.495 2.475 0.495 5 1 C4.67 2.65 4.34 4.3 4 6 C3.01 6 2.02 6 1 6 C0.67 4.02 0.34 2.04 0 0 Z " fill="#331F0F" transform="translate(362,570)"/>
<path d="M0 0 C1.32 0.33 2.64 0.66 4 1 C4.33 2.65 4.66 4.3 5 6 C3.35 5.67 1.7 5.34 0 5 C0 3.35 0 1.7 0 0 Z " fill="#33200F" transform="translate(351,510)"/>
<path d="M0 0 C1.32 0.33 2.64 0.66 4 1 C4.33 2.65 4.66 4.3 5 6 C3.35 5.67 1.7 5.34 0 5 C0 3.35 0 1.7 0 0 Z " fill="#342010" transform="translate(338,471)"/>
<path d="M0 0 C1.32 0.33 2.64 0.66 4 1 C4.33 2.65 4.66 4.3 5 6 C3.35 5.67 1.7 5.34 0 5 C0 3.35 0 1.7 0 0 Z " fill="#33200F" transform="translate(275,367)"/>
<path d="M0 0 C1.65 0 3.3 0 5 0 C4.67 1.32 4.34 2.64 4 4 C2.35 4.33 0.7 4.66 -1 5 C-0.67 3.35 -0.34 1.7 0 0 Z " fill="#2B1C0D" transform="translate(1016,853)"/>
<path d="M0 0 C1.32 0.33 2.64 0.66 4 1 C4 2.65 4 4.3 4 6 C2.68 6 1.36 6 0 6 C0 4.02 0 2.04 0 0 Z " fill="#311E0E" transform="translate(361,670)"/>
<path d="M0 0 C1.98 0.495 1.98 0.495 4 1 C4 2.65 4 4.3 4 6 C2.68 6 1.36 6 0 6 C-1.125 2.25 -1.125 2.25 0 0 Z " fill="#331F0E" transform="translate(360,549)"/>
<path d="M0 0 C1.32 0.33 2.64 0.66 4 1 C4.33 2.65 4.66 4.3 5 6 C3.68 6 2.36 6 1 6 C0.67 4.02 0.34 2.04 0 0 Z " fill="#32200F" transform="translate(356,530)"/>
<path d="M0 0 C1.32 0.33 2.64 0.66 4 1 C4.33 2.65 4.66 4.3 5 6 C3.68 6 2.36 6 1 6 C0.67 4.02 0.34 2.04 0 0 Z " fill="#34200F" transform="translate(345,490)"/>
<path d="M0 0 C1.32 0.33 2.64 0.66 4 1 C4.33 2.65 4.66 4.3 5 6 C3.68 6 2.36 6 1 6 C0.67 4.02 0.34 2.04 0 0 Z " fill="#362110" transform="translate(247,338)"/>
<path d="M0 0 C1.65 0.33 3.3 0.66 5 1 C4.34 2.32 3.68 3.64 3 5 C1.68 4.67 0.36 4.34 -1 4 C-0.67 2.68 -0.34 1.36 0 0 Z " fill="#2C1B0C" transform="translate(38,993)"/>
<path d="M0 0 C1.32 0.33 2.64 0.66 4 1 C3.34 2.32 2.68 3.64 2 5 C0.35 5 -1.3 5 -3 5 C-2.01 3.35 -1.02 1.7 0 0 Z " fill="#2B1C0D" transform="translate(861,982)"/>
<path d="M0 0 C1.32 0 2.64 0 4 0 C3.67 1.32 3.34 2.64 3 4 C1.35 4.33 -0.3 4.66 -2 5 C-1.125 1.125 -1.125 1.125 0 0 Z " fill="#2B1C0D" transform="translate(900,936)"/>
<path d="M0 0 C2.475 0.495 2.475 0.495 5 1 C5 2.65 5 4.3 5 6 C4.01 6 3.02 6 2 6 C0 3 0 3 0 0 Z " fill="#34210F" transform="translate(329,452)"/>
<path d="M0 0 C1.98 0 3.96 0 6 0 C6 1.32 6 2.64 6 4 C4.02 4 2.04 4 0 4 C0 2.68 0 1.36 0 0 Z " fill="#3A2413" transform="translate(35,233)"/>
<path d="M0 0 C0.99 0.33 1.98 0.66 3 1 C2.34 2.65 1.68 4.3 1 6 C0.01 6 -0.98 6 -2 6 C-2 4.35 -2 2.7 -2 1 C-1.34 0.67 -0.68 0.34 0 0 Z " fill="#2D1C0C" transform="translate(874,965)"/>
<path d="M0 0 C0.66 0 1.32 0 2 0 C1.67 1.65 1.34 3.3 1 5 C-0.65 5.33 -2.3 5.66 -4 6 C-2.84826645 3.53199953 -1.95216435 1.95216435 0 0 Z " fill="#2C1C0D" transform="translate(887,950)"/>
<path d="M0 0 C0.99 0 1.98 0 3 0 C2.67 1.65 2.34 3.3 2 5 C0.68 5.33 -0.64 5.66 -2 6 C-1.125 1.125 -1.125 1.125 0 0 Z " fill="#2C1C0D" transform="translate(931,908)"/>
<path d="M0 0 C-0.33 1.65 -0.66 3.3 -1 5 C-2.65 5 -4.3 5 -6 5 C-6 4.01 -6 3.02 -6 2 C-3 0 -3 0 0 0 Z " fill="#2A1B0C" transform="translate(985,874)"/>
<path d="M0 0 C1.32 0.66 2.64 1.32 4 2 C3.67 3.32 3.34 4.64 3 6 C1.68 5.67 0.36 5.34 -1 5 C-0.67 3.35 -0.34 1.7 0 0 Z " fill="#331F0E" transform="translate(358,690)"/>
<path d="M0 0 C1.65 0 3.3 0 5 0 C5.33 1.32 5.66 2.64 6 4 C4.02 4 2.04 4 0 4 C0 2.68 0 1.36 0 0 Z " fill="#3A2513" transform="translate(94,248)"/>
<path d="M0 0 C0.99 0 1.98 0 3 0 C3 1.65 3 3.3 3 5 C1.68 5.33 0.36 5.66 -1 6 C-1.042721 4.33388095 -1.04063832 2.66617115 -1 1 C-0.67 0.67 -0.34 0.34 0 0 Z " fill="#301E0E" transform="translate(348,729)"/>
<path d="M0 0 C2.475 0.495 2.475 0.495 5 1 C5 2.32 5 3.64 5 5 C3.35 4.67 1.7 4.34 0 4 C0 2.68 0 1.36 0 0 Z " fill="#34200F" transform="translate(261,353)"/>
<path d="M0 0 C2.475 0.495 2.475 0.495 5 1 C5 2.32 5 3.64 5 5 C3.35 4.67 1.7 4.34 0 4 C0 2.68 0 1.36 0 0 Z " fill="#3A2512" transform="translate(132,262)"/>
<path d="M0 0 C1.32 0.33 2.64 0.66 4 1 C4 2.65 4 4.3 4 6 C2.68 5.67 1.36 5.34 0 5 C0 3.35 0 1.7 0 0 Z " fill="#352210" transform="translate(311,416)"/>
<path d="M0 0 C2.475 0.495 2.475 0.495 5 1 C4.67 2.32 4.34 3.64 4 5 C2.68 4.67 1.36 4.34 0 4 C0 2.68 0 1.36 0 0 Z " fill="#3A2513" transform="translate(201,301)"/>
<path d="M0 0 C0.99 0 1.98 0 3 0 C2.67 1.65 2.34 3.3 2 5 C0.68 5 -0.64 5 -2 5 C-1.34 3.35 -0.68 1.7 0 0 Z " fill="#2E1D0E" transform="translate(964,885)"/>
<path d="M0 0 C0.99 0 1.98 0 3 0 C2.67 1.65 2.34 3.3 2 5 C0.68 5 -0.64 5 -2 5 C-1.125 1.125 -1.125 1.125 0 0 Z " fill="#2E1D0D" transform="translate(999,863)"/>
<path d="M0 0 C0.99 0.33 1.98 0.66 3 1 C2.67 2.65 2.34 4.3 2 6 C1.01 5.67 0.02 5.34 -1 5 C-0.67 3.35 -0.34 1.7 0 0 Z " fill="#332010" transform="translate(354,710)"/>
<path d="M0 0 C0 3 0 3 -1.53125 4.60546875 C-2.1809375 5.12753906 -2.830625 5.64960938 -3.5 6.1875 C-4.1496875 6.71730469 -4.799375 7.24710938 -5.46875 7.79296875 C-5.9740625 8.19128906 -6.479375 8.58960938 -7 9 C-7.66 8.67 -8.32 8.34 -9 8 C-6.03 5.36 -3.06 2.72 0 0 Z " fill="#291A0C" transform="translate(1023,224)"/>
<path d="M0 0 C0 1.98 0 3.96 0 6 C-1.32 6 -2.64 6 -4 6 C-4 4.68 -4 3.36 -4 2 C-1 0 -1 0 0 0 Z " fill="#2A1B0C" transform="translate(844,1009)"/>
<path d="M0 0 C1.65 0 3.3 0 5 0 C4.67 1.32 4.34 2.64 4 4 C2.68 4 1.36 4 0 4 C0 2.68 0 1.36 0 0 Z " fill="#301D0D" transform="translate(57,990)"/>
<path d="M0 0 C1.32 0 2.64 0 4 0 C3.67 1.65 3.34 3.3 3 5 C2.01 5 1.02 5 0 5 C0 3.35 0 1.7 0 0 Z " fill="#321F0F" transform="translate(341,749)"/>
<path d="M0 0 C0.66 0.33 1.32 0.66 2 1 C0.02 2.65 -1.96 4.3 -4 6 C-4 5.34 -4 4.68 -4 4 C-5.98 4 -7.96 4 -10 4 C-10 3.67 -10 3.34 -10 3 C-9.04287109 2.80083984 -9.04287109 2.80083984 -8.06640625 2.59765625 C-7.24011719 2.42105469 -6.41382813 2.24445313 -5.5625 2.0625 C-4.73878906 1.88847656 -3.91507813 1.71445313 -3.06640625 1.53515625 C-1.02338796 1.19247006 -1.02338796 1.19247006 0 0 Z " fill="#26180A" transform="translate(1012,233)"/>
<path d="M0 0 C0 0.66 0 1.32 0 2 C-2.31 3.32 -4.62 4.64 -7 6 C-7.66 5.34 -8.32 4.68 -9 4 C-2.25 0 -2.25 0 0 0 Z M-11 5 C-9 6 -9 6 -9 6 Z " fill="#201409" transform="translate(1009,101)"/>
<path d="M0 0 C1.32 0 2.64 0 4 0 C4 1.32 4 2.64 4 4 C2.35 3.67 0.7 3.34 -1 3 C-0.67 2.01 -0.34 1.02 0 0 Z " fill="#33200F" transform="translate(18,997)"/>
<path d="M0 0 C1.65 0 3.3 0 5 0 C4.67 1.32 4.34 2.64 4 4 C2.68 3.67 1.36 3.34 0 3 C0 2.01 0 1.02 0 0 Z " fill="#331F0E" transform="translate(97,979)"/>
<path d="M0 0 C0.99 0 1.98 0 3 0 C2.67 1.65 2.34 3.3 2 5 C1.01 5 0.02 5 -1 5 C-0.67 3.35 -0.34 1.7 0 0 Z " fill="#321E0D" transform="translate(137,963)"/>
<path d="M0 0 C0.99 0 1.98 0 3 0 C3 1.65 3 3.3 3 5 C1.68 4.67 0.36 4.34 -1 4 C-0.67 2.68 -0.34 1.36 0 0 Z " fill="#301E0D" transform="translate(333,769)"/>
<path d="M0 0 C1.32 0 2.64 0 4 0 C3.67 1.32 3.34 2.64 3 4 C1.68 4 0.36 4 -1 4 C-0.67 2.68 -0.34 1.36 0 0 Z " fill="#321F0E" transform="translate(78,985)"/>
<path d="M0 0 C2.31 0 4.62 0 7 0 C6.67 0.99 6.34 1.98 6 3 C4.35 3 2.7 3 1 3 C0.67 2.01 0.34 1.02 0 0 Z " fill="#2A1A0B" transform="translate(7,927)"/>
<path d="M0 0 C0.99 0 1.98 0 3 0 C3.33 1.65 3.66 3.3 4 5 C2.68 4.67 1.36 4.34 0 4 C0 2.68 0 1.36 0 0 Z " fill="#2D1C0D" transform="translate(162,360)"/>
</svg>
